<svg xmlns="http://www.w3.org/2000/svg" xmlns:svg="http://www.w3.org/2000/svg" id="svg2" width="128" height="128" version="1.1" viewBox="0 0 128 128"><metadata id="metadata7"/><g id="layer2" style="display:inline"><path style="fill:#91c653;fill-opacity:1;stroke:none;stroke-width:0;stroke-miterlimit:4;stroke-dasharray:none;stroke-opacity:1" id="path4202" d="M 63.992188,23.999553 A 43.039765,44.428189 0 0 0 21,67.462444 l 0,5 0,27.537111 c 0,2.216005 1.784,4.000005 4,4.000005 l 78,0 c 2.216,0 4,-1.784 4,-4.000005 l 0,-28.537111 0,-4 A 43.039765,44.428189 0 0 0 63.992188,23.999553 Z M 45.525391,43.696819 a 5.0860207,5.0860207 0 0 1 5.085937,5.085937 5.0860207,5.0860207 0 0 1 -5.085937,5.085938 5.0860207,5.0860207 0 0 1 -5.085938,-5.085938 5.0860207,5.0860207 0 0 1 5.085938,-5.085937 z m 36.949218,0 a 5.0860207,5.0860207 0 0 1 5.085938,5.085937 5.0860207,5.0860207 0 0 1 -5.085938,5.085938 5.0860207,5.0860207 0 0 1 -5.085937,-5.085938 5.0860207,5.0860207 0 0 1 5.085937,-5.085937 z"/><g id="g4249" transform="matrix(0.92473103,0,0,0.92473103,7.4738276,2.8546826)" style="fill:#93c756;fill-opacity:1"><rect id="rect4232" width="23" height="4" x="28.103" y="-16.424" rx="2" ry="2" transform="matrix(0.52991927,0.84804809,-0.84804809,0.52991927,0,0)" style="fill:#93c756;fill-opacity:1;stroke:none;stroke-width:0;stroke-miterlimit:4;stroke-dasharray:none;stroke-opacity:1"/><rect id="rect4232-7" width="23" height="4" x="-36.682" y="87.254" rx="2" ry="2" transform="matrix(-0.52991927,0.84804809,0.84804809,0.52991927,0,0)" style="fill:#93c756;fill-opacity:1;stroke:none;stroke-width:0;stroke-miterlimit:4;stroke-dasharray:none;stroke-opacity:1"/></g></g><g id="layer5" style="display:inline"><rect style="display:inline;fill:#8bbe50;fill-opacity:1;stroke:#000;stroke-width:0;stroke-miterlimit:4;stroke-dasharray:none;stroke-opacity:1" id="rect4211-3-0" width="86" height="36.538" x="21" y="67.462" rx="4" ry="4"/><rect style="fill:#88ba4e;fill-opacity:1;stroke:none;stroke-width:0;stroke-miterlimit:4;stroke-dasharray:none;stroke-opacity:1" id="rect4253-5" width="86" height="4" x="21" y="67.462"/></g></svg>