<svg xmlns="http://www.w3.org/2000/svg" xmlns:svg="http://www.w3.org/2000/svg" id="svg5246" width="128" height="128" version="1.1" viewBox="0 0 128 128"><metadata id="metadata5251"/><g id="layer1" transform="translate(0,-924.36216)" style="display:inline"><path id="path10" d="m 50.25,1016.9622 c 0,-12.7 6.1,-23.10004 13.7,-23.10004 7.6,0 13.7,10.30004 13.7,23.10004 0,1.1 -0.1,2.1 -0.1,3.2 11.8,2.2 22.8,7.1 32.5,13.9 -2.5,-4.8 -5.1,-9.7 -7.6,-14.6 -6.1,-6 -13.2,-11.4 -21.2,-16.3 6.5,2.8 12.4,5.8 17.6,9.2 -0.7,-1.4 -1.4,-2.7 -2.1,-4 -11.9,-23.20004 -22.9,-45.40004 -32.7,-66.00004 -3.6,7.5 -7.4,15.3 -11.2,23.2 4.5,3.7 9.4,7.2 14.7,10.4 -5.8,-2.5 -11.1,-5.2 -15.9,-8.1 -6.4,13 -13.2,26.5 -20.2,40.30004 -4.5,8.9 -9,17.6 -13.5,26.1 9.7,-6.8 20.7,-11.9 32.5,-14.1 -0.1,-1 -0.2,-2.1 -0.2,-3.2 z" style="fill:#01a4f4;fill-opacity:1;stroke:none"/></g><g id="layer3" style="display:inline"><path style="fill:#01a1ef;fill-opacity:1;stroke:none" id="path10-4" d="M 82.003906 54.806641 L 39.931641 67.003906 C 37.140426 72.552967 34.323919 78.133498 31.449219 83.800781 C 26.949219 92.700781 22.449219 101.40039 17.949219 109.90039 C 27.649219 103.10039 38.649219 98.000781 50.449219 95.800781 C 50.349219 94.800781 50.25 93.699609 50.25 92.599609 C 50.25 79.899609 56.349219 69.5 63.949219 69.5 C 71.549219 69.5 77.650391 79.799609 77.650391 92.599609 C 77.650391 93.699609 77.550781 94.700781 77.550781 95.800781 C 89.350781 98.000781 100.35078 102.89922 110.05078 109.69922 C 107.55078 104.89922 104.94922 99.999609 102.44922 95.099609 C 96.349218 89.099609 89.25 83.700781 81.25 78.800781 C 87.75 81.600781 93.649609 84.6 98.849609 88 C 98.149609 86.6 97.45 85.3 96.75 84 C 91.647234 74.051733 86.749203 64.336309 82.003906 54.806641 z"/></g></svg>