<svg xmlns="http://www.w3.org/2000/svg" xmlns:svg="http://www.w3.org/2000/svg" id="svg2" width="128" height="128" version="1.1" viewBox="0 0 128 128"><metadata id="metadata7"/><g id="layer1" transform="translate(0,-924.36216)" style="display:inline"><circle style="color:#000;clip-rule:nonzero;display:inline;overflow:visible;visibility:visible;opacity:1;isolation:auto;mix-blend-mode:normal;color-interpolation:sRGB;color-interpolation-filters:linearRGB;solid-color:#000;solid-opacity:1;fill:#f9f9f9;fill-opacity:1;fill-rule:nonzero;stroke:#b3b3be;stroke-width:1;stroke-linecap:butt;stroke-linejoin:miter;stroke-miterlimit:4;stroke-dasharray:none;stroke-dashoffset:0;stroke-opacity:1;color-rendering:auto;image-rendering:auto;shape-rendering:auto;text-rendering:auto;enable-background:accumulate" id="path4683" cx="64" cy="988.362" r="45.5"/></g><g id="layer3"><path style="color:#000;font-style:normal;font-variant:normal;font-weight:400;font-stretch:normal;font-size:medium;line-height:normal;font-family:sans-serif;text-indent:0;text-align:start;text-decoration:none;text-decoration-line:none;text-decoration-style:solid;text-decoration-color:#000;letter-spacing:normal;word-spacing:normal;text-transform:none;direction:ltr;block-progression:tb;writing-mode:lr-tb;baseline-shift:baseline;text-anchor:start;white-space:normal;clip-rule:nonzero;display:inline;overflow:visible;visibility:visible;opacity:1;isolation:auto;mix-blend-mode:normal;color-interpolation:sRGB;color-interpolation-filters:linearRGB;solid-color:#000;solid-opacity:1;fill:#80808a;fill-opacity:1;fill-rule:nonzero;stroke:none;stroke-width:2.83912325;stroke-linecap:round;stroke-linejoin:miter;stroke-miterlimit:4;stroke-dasharray:none;stroke-dashoffset:0;stroke-opacity:1;color-rendering:auto;image-rendering:auto;shape-rendering:auto;text-rendering:auto;enable-background:accumulate" id="path3336-2-2-2-2-2-3-5" d="M 64.439453 42.117188 C 55.65406 41.935932 47.444572 47.201464 43.992188 55.632812 C 40.046605 65.268642 43.379829 76.397763 51.962891 82.199219 C 60.545952 88.000675 72.02219 86.857255 79.318359 79.476562 A 1.4197617 1.4197617 0 1 0 77.298828 77.480469 C 70.942556 83.910376 61.023246 84.897119 53.552734 79.847656 C 46.082223 74.798194 43.176075 65.115621 46.619141 56.707031 C 50.062206 48.298442 58.86211 43.546474 67.667969 45.318359 C 76.473827 47.090245 82.816406 54.899195 82.816406 64.003906 A 1.4197036 1.4197036 0 0 0 82.816406 64.056641 A 1.4197036 1.4197036 0 0 0 82.816406 64.09375 L 82.816406 84.447266 A 1.4197036 1.4197036 0 1 0 85.654297 84.447266 L 85.654297 64.09375 A 1.4197036 1.4197036 0 0 0 85.652344 64.0625 A 1.4197036 1.4197036 0 0 0 85.654297 64.003906 C 85.654297 53.577481 78.359138 44.573606 68.228516 42.535156 C 66.962188 42.28035 65.694509 42.143081 64.439453 42.117188 z"/></g></svg>