<svg xmlns="http://www.w3.org/2000/svg" xmlns:svg="http://www.w3.org/2000/svg" id="svg2" width="128" height="128" version="1.1" viewBox="0 0 128 128"><metadata id="metadata7"/><g id="layer1" transform="translate(0,-924.36216)" style="display:none"><path style="color:#000;font-style:normal;font-variant:normal;font-weight:400;font-stretch:normal;font-size:medium;line-height:normal;font-family:sans-serif;text-indent:0;text-align:start;text-decoration:none;text-decoration-line:none;text-decoration-style:solid;text-decoration-color:#000;letter-spacing:normal;word-spacing:normal;text-transform:none;direction:ltr;block-progression:tb;writing-mode:lr-tb;baseline-shift:baseline;text-anchor:start;white-space:normal;clip-rule:nonzero;display:inline;overflow:visible;visibility:visible;opacity:1;isolation:auto;mix-blend-mode:normal;color-interpolation:sRGB;color-interpolation-filters:linearRGB;solid-color:#000;solid-opacity:1;fill:#f1f2f2;fill-opacity:1;fill-rule:nonzero;stroke:#999;stroke-width:1;stroke-linecap:butt;stroke-linejoin:round;stroke-miterlimit:10;stroke-dasharray:none;stroke-dashoffset:0;stroke-opacity:1;color-rendering:auto;image-rendering:auto;shape-rendering:auto;text-rendering:auto;enable-background:accumulate" id="path4354-8" d="m 62.21875,17.070312 c -3.786009,0.11677 -7.746507,1.281053 -11.681641,3.691407 -7.384147,4.52296 -14.88162,13.069738 -22.757812,26.855469 -7.87619,13.785719 -11.452646,24.62004 -11.636719,33.34375 -0.112106,5.313099 1.186483,9.841756 3.494141,13.472656 0.02488,0.051 0.05865,0.09764 0.08398,0.148437 0.03106,0.048 0.05452,0.102791 0.08594,0.150391 1.957789,3.8351 5.189446,7.234468 9.798828,9.792968 7.568221,4.2007 18.642151,6.49023 34.394531,6.49023 15.75238,0 26.826309,-2.28953 34.394531,-6.49023 4.609561,-2.5586 7.841061,-5.957668 9.798831,-9.792968 0,0 0.002,0 0.002,0 0.0613,-0.093 0.10611,-0.198769 0.16602,-0.292969 0,0 0.002,0 0.002,0 2.30786,-3.6309 3.60625,-8.159356 3.49414,-13.472656 -0.18407,-8.72371 -3.75858,-19.559983 -11.63476,-33.345703 C 92.346558,33.835364 84.847137,25.288585 77.462989,20.765625 72.965697,18.010935 68.435564,16.883711 64.17002,17.087891 c -0.05602,-0.004 -0.1138,0.0036 -0.169922,0 -0.05546,0.003 -0.112602,-0.004 -0.167969,0 l 0,-0.0059 c 0,0 -0.002,0.002 -0.002,0.002 -0.533193,-0.02552 -1.07047,-0.03035 -1.611328,-0.01367 z" transform="translate(0,924.36216)"/></g><g id="layer2" style="display:inline"><path style="fill:#1756b6;fill-opacity:1;stroke:none;stroke-width:0;stroke-linecap:round;stroke-linejoin:round;stroke-miterlimit:4;stroke-dasharray:none;stroke-opacity:1" id="path4164" d="m 64.000001,108.56153 c -47.23758,0 -57.3599194,-17.532405 -33.741131,-58.441349 23.618789,-40.9089454 43.863467,-40.908946 67.482258,-2e-6 23.618792,40.908943 13.496452,58.441351 -33.741127,58.441351 z"/></g><g id="layer3" style="display:inline"><path style="fill:#c6d5ed;fill-opacity:1;stroke:none;stroke-width:14;stroke-linejoin:round;stroke-miterlimit:10;stroke-dasharray:none;stroke-dashoffset:0;stroke-opacity:1" id="path4218-3" d="M 64.818125,40.242988 C 57.983793,45.855077 49.465968,50.797583 39.471718,54.561894 a 28.16,28.16 0 0 0 -3.631719,13.799845 28.16,28.16 0 0 0 1.149845,7.899374 C 47.05194,70.120737 59.707041,59.393324 67.504532,40.485331 a 28.16,28.16 0 0 0 -2.686407,-0.242343 z m 6.928281,1.087968 C 68.808009,58.821133 62.238724,76.350927 48.465937,91.829552 A 28.16,28.16 0 0 0 64,96.521738 28.16,28.16 0 0 0 68.900157,96.064551 C 73.521709,85.99648 80.459514,66.491911 73.054375,41.769239 a 28.16,28.16 0 0 0 -1.307969,-0.438283 z m 7.155157,3.196875 c 5.36894,11.750453 8.575926,24.803021 8.339375,39.68422 A 28.16,28.16 0 0 0 92.160001,68.361739 28.16,28.16 0 0 0 78.901563,44.527831 Z"/></g></svg>