<svg xmlns="http://www.w3.org/2000/svg" xmlns:svg="http://www.w3.org/2000/svg" id="svg2" width="128" height="128" version="1.1" viewBox="0 0 128 128"><metadata id="metadata7"/><g id="layer1" transform="translate(0,-924.36216)" style="display:none"><rect style="fill:#7fb5e2;fill-opacity:1;stroke:none;stroke-width:5;stroke-linecap:round;stroke-linejoin:round;stroke-miterlimit:4;stroke-dasharray:none;stroke-opacity:1" id="rect4140" width="80" height="80" x="24" y="948.362" rx="2" ry="2"/></g><g id="layer2"><rect style="fill:#333;fill-opacity:1;stroke:none;stroke-width:5;stroke-linecap:round;stroke-linejoin:round;stroke-miterlimit:4;stroke-dasharray:none;stroke-opacity:1" id="rect4143" width="10" height="80.306" x="38.987" y="24.092" rx="2" ry="2.008" transform="matrix(1,0,-0.08715574,0.9961947,0,0)"/><rect style="fill:#333;fill-opacity:1;stroke:none;stroke-width:5;stroke-linecap:round;stroke-linejoin:round;stroke-miterlimit:4;stroke-dasharray:none;stroke-opacity:1" id="rect4143-5" width="10" height="80.306" x="72.987" y="24.092" rx="2" ry="2.008" transform="matrix(1,0,-0.08715574,0.9961947,0,0)"/><rect style="fill:#333;fill-opacity:1;stroke:none;stroke-width:5;stroke-linecap:round;stroke-linejoin:round;stroke-miterlimit:4;stroke-dasharray:none;stroke-opacity:1" id="rect4160" width="64" height="10.038" x="28.987" y="38.145" rx="2" ry="2.008" transform="matrix(1,0,-0.08715574,0.9961947,0,0)"/><rect style="fill:#333;fill-opacity:1;stroke:none;stroke-width:5;stroke-linecap:round;stroke-linejoin:round;stroke-miterlimit:4;stroke-dasharray:none;stroke-opacity:1" id="rect4160-6" width="64" height="10.038" x="28.987" y="80.306" rx="2" ry="2.008" transform="matrix(1,0,-0.08715574,0.9961947,0,0)"/><rect style="fill:#333;fill-opacity:1;stroke:none;stroke-width:5;stroke-linecap:round;stroke-linejoin:round;stroke-miterlimit:4;stroke-dasharray:none;stroke-opacity:1" id="rect4143-5-3" width="10" height="64.244" x="98.987" y="24.092" rx="2" ry="2.008" transform="matrix(1,0,-0.08715574,0.9961947,0,0)"/><rect style="fill:#333;fill-opacity:1;stroke:none;stroke-width:5;stroke-linecap:round;stroke-linejoin:round;stroke-miterlimit:4;stroke-dasharray:none;stroke-opacity:1" id="rect4204" width="10" height="10.038" x="98.987" y="94.359" rx="2" ry="2.008" transform="matrix(1,0,-0.08715574,0.9961947,0,0)"/></g></svg>