<svg xmlns="http://www.w3.org/2000/svg" xmlns:svg="http://www.w3.org/2000/svg" id="svg2" width="128" height="128" version="1.1" viewBox="0 0 128 128"><defs id="defs4"><linearGradient id="b-8" x1="48.471" x2="48.471" y1="40.996" y2="110" gradientUnits="userSpaceOnUse"><stop id="stop26-4" offset=".35" style="stop-color:#50b848"/><stop id="stop28-5" offset="1" style="stop-color:#409a3c"/></linearGradient><radialGradient id="a-9" cx="65.406" cy="45.313" r="34.982" gradientUnits="userSpaceOnUse"><stop id="stop37-9" offset=".25" style="stop-color:#f04e37"/><stop id="stop39-1" offset="1" style="stop-color:#ee3135"/></radialGradient><linearGradient id="c-4" x1="87" x2="87" y1="46.75" y2="110" gradientUnits="userSpaceOnUse"><stop id="stop15-4" offset=".35" style="stop-color:#ffde17"/><stop id="stop17-4" offset="1" style="stop-color:#d5b718"/></linearGradient><linearGradient id="d-7" x1="64" x2="64" y1="50.344" y2="77.656" gradientUnits="userSpaceOnUse"><stop style="stop-color:#6dcff6" id="stop52-1" offset="0"/><stop style="stop-color:#1c75bc" id="stop54-0" offset="1"/></linearGradient></defs><metadata id="metadata7"/><g id="layer4" style="display:inline"><g id="g4192" transform="matrix(0.575,0,0,0.575,8.8001065,8.7998568)" style="display:inline"><circle id="path4279-0" cx="35.138" cy="-131.137" r="40" transform="matrix(-0.5,0.8660254,-0.8660254,-0.5,0,0)" style="display:inline;fill:#f9f9f9;fill-opacity:1;stroke:none"/><path id="circle4206-3" d="m 95.999134,55.999002 6e-6,5.000011 a 35,35 0 0 1 34.99999,35.000002 35,35 0 0 1 -4.7168,17.484365 l 0.0274,0.0156 -35.921875,62.21875 a 80,80 0 0 0 5.611297,0.28131 80,80 0 0 0 80.000028,-80.000045 80,80 0 0 0 -10.83202,-39.999997 l -69.168009,1.9e-5 z" style="display:inline;fill:#ffce41;fill-opacity:1;stroke:none"/><path id="path4247-6" d="M 94.11046,16.020483 A 80,80 0 0 0 55.999134,26.717759 80,80 0 0 0 26.774544,56.098623 l 34.583967,59.900387 4.33008,-2.49999 a 35,35 0 0 1 12.81054,-47.810566 35,35 0 0 1 17.500007,-4.658205 l 1e-5,-0.03118 71.843722,2.4e-5 a 80,80 0 0 0 -2.56251,-5 80,80 0 0 0 -71.169887,-39.978545 z" style="display:inline;fill:#dc4c3d;fill-opacity:1;stroke:none"/><path id="path4238-3" d="m 29.766712,51.28025 a 80,80 0 0 0 -3.048845,4.718744 80,80 0 0 0 29.281271,109.281246 80,80 0 0 0 40.056635,10.6192 l 34.583977,-59.90043 -4.33007,-2.5 A 35,35 0 0 1 78.499132,126.30957 35,35 0 0 1 65.715935,113.4834 l -0.02737,0.0156 -35.921857,-62.218734 z" style="display:inline;fill:#119f5b;fill-opacity:1;stroke:none"/><path id="rect4259-0" d="m 132.00705,115.63398 -5.19616,-3 -36.436519,63.10991 a 80,80 0 0 0 6.835803,0.16004 l 34.796876,-60.26995 z" style="display:inline;fill:#ffce41;fill-opacity:1;stroke:none"/></g><path style="display:inline;fill:#000;fill-opacity:.03137255;stroke:none" id="rect4836-4-8" d="m 64.000107,43.874861 10e-7,23.999997 36.000002,-24.000002 -36.000003,5e-6 z"/><path style="display:inline;fill:#000;fill-opacity:.03137255;stroke:none" id="rect4836-4-8-3" d="M 81.427866,74.061393 60.643259,62.061395 63.427869,105.23831 81.427866,74.061393 Z"/><path style="display:inline;fill:#000;fill-opacity:.03137255;stroke:none" id="rect4836-4-8-5" d="M 46.571795,74.061206 67.356402,62.061207 28.571792,42.884293 46.571795,74.061206 Z"/></g><g id="layer1" style="display:inline"><circle style="display:inline;fill:#f9f9f9;fill-opacity:1;stroke:none" id="path5172" cx="64" cy="64" r="20.125"/><circle style="display:inline;fill:#4587f3;fill-opacity:1;stroke:none" id="path4975" cx="64" cy="64" r="16.675"/></g></svg>