<svg xmlns="http://www.w3.org/2000/svg" xmlns:svg="http://www.w3.org/2000/svg" id="svg2" width="128" height="128" version="1.1" viewBox="0 0 128 128"><metadata id="metadata7"/><g id="layer1" transform="translate(0,-924.36216)"><circle style="color:#000;clip-rule:nonzero;display:inline;overflow:visible;visibility:visible;opacity:1;isolation:auto;mix-blend-mode:normal;color-interpolation:sRGB;color-interpolation-filters:linearRGB;solid-color:#000;solid-opacity:1;fill:#4291ce;fill-opacity:1;fill-rule:nonzero;stroke:none;stroke-width:2;stroke-linecap:butt;stroke-linejoin:miter;stroke-miterlimit:4;stroke-dasharray:none;stroke-dashoffset:0;stroke-opacity:1;color-rendering:auto;image-rendering:auto;shape-rendering:auto;text-rendering:auto;enable-background:accumulate" id="path4715" cx="64" cy="988.362" r="46"/></g><g id="layer2"><path style="display:inline;fill:#e9455a;stroke:none" id="path10-7" d="m 93.2,34.799996 c -8.6,-8.6 -20,-12.6 -31.2,-12 -13.2,6.1 -17.5,34 -14.3,53.5 l 0,0 c 0.1,0 0.2,0 0.2,0 22.5,2.7 53.6,0.1 57.4,-11 0.3,-11 -3.7,-22.1 -12.1,-30.5 z"/></g><g id="layer3"><path style="display:inline;fill:#f2f2f2;stroke:none" id="path12-4" d="M 82.4,45.4 C 78,41.1 72.2,39 66.5,39.3 59.8,42.4 57.6,56.5 59.2,66.4 l 0,0 c 0,0 0.1,0 0.1,0 11.4,1.4 27.2,0 29.1,-5.6 0.3,-5.5 -1.8,-11.1 -6,-15.4 z"/></g></svg>