<svg xmlns="http://www.w3.org/2000/svg" xmlns:svg="http://www.w3.org/2000/svg" id="svg4168" width="128" height="128" version="1.1" viewBox="0 0 128 128"><metadata id="metadata4173"/><g id="layer6" style="display:inline"><rect style="fill:#b3b3be;fill-opacity:1" id="rect4155" width="70" height="70" x="29" y="29"/><rect style="display:inline;fill:#b3b3be;fill-opacity:1" id="rect4155-0" width="70" height="70" x="-35" y="55.51" transform="matrix(0.70710678,-0.70710678,0.70710678,0.70710678,0,0)"/><rect style="fill:#f2f2f2;fill-opacity:1" id="rect4172" width="24" height="24" x="52" y="52"/></g><g id="layer2" style="display:inline"><path style="display:inline;fill:#f2f2f2;fill-opacity:1;stroke:none;stroke-width:16;stroke-miterlimit:4;stroke-dasharray:none;stroke-opacity:1" id="path4188-1" d="M 63.999994,112.0833 86.627411,89.455881 63.999994,66.828464 41.372577,89.455881 63.999994,112.0833 Z"/><path style="display:inline;fill:#f2f2f2;fill-opacity:1;stroke:none;stroke-width:16;stroke-miterlimit:4;stroke-dasharray:none;stroke-opacity:1" id="path4186-1" d="M 38.54415,86.627454 61.171567,64.000037 38.54415,41.37262 15.916727,64.000038 38.54415,86.627454 Z"/><path style="display:inline;fill:#f2f2f2;fill-opacity:1;stroke:none;stroke-width:16;stroke-miterlimit:4;stroke-dasharray:none;stroke-opacity:1" id="path4184-6" d="M 89.455837,86.627455 112.08328,64.00001 89.455865,41.372593 66.82842,64.000038 89.455837,86.627455 Z"/><path style="display:inline;fill:#f2f2f2;fill-opacity:1;stroke:none;stroke-width:16;stroke-miterlimit:4;stroke-dasharray:none;stroke-opacity:1" id="rect4146-2" d="M 63.999993,61.171611 86.627438,38.544166 64.000021,15.916744 41.372576,38.544194 63.999993,61.171611 Z"/><path style="display:inline;fill:#87bf14;fill-opacity:1;stroke:none;stroke-width:16;stroke-miterlimit:4;stroke-dasharray:none;stroke-opacity:1" id="path4188-0-31" d="M 63.999993,109.25487 83.798984,89.455881 63.999994,69.656893 44.201003,89.455882 63.999993,109.25487 Z"/><path style="display:inline;fill:#9b28b7;fill-opacity:1;stroke:none;stroke-width:16;stroke-miterlimit:4;stroke-dasharray:none;stroke-opacity:1" id="path4188-0-1-6" d="M 38.544149,83.799028 58.34314,64.000037 38.54415,44.201047 18.745157,64.000038 38.544149,83.799028 Z"/><path style="display:inline;fill:#ffce41;fill-opacity:1;stroke:none;stroke-width:16;stroke-miterlimit:4;stroke-dasharray:none;stroke-opacity:1" id="path4188-0-2-7" d="M 63.999993,58.343183 83.799011,38.544166 64.000021,18.745174 44.201003,38.544194 63.999993,58.343183 Z"/><path style="display:inline;fill:#2c5aa0;fill-opacity:1;stroke:none;stroke-width:16;stroke-miterlimit:4;stroke-dasharray:none;stroke-opacity:1" id="path4188-0-3-1" d="M 89.455837,83.799028 109.25485,64.00001 89.455865,44.20102 69.656847,64.000038 l 19.79899,19.79899 z"/></g><g id="layer1" transform="translate(0,-924.36216)" style="display:inline"><path style="display:inline;fill:#f2f2f2;fill-opacity:1;stroke:none;stroke-width:16;stroke-miterlimit:4;stroke-dasharray:none;stroke-opacity:1" id="path4188" d="m 30.000002,954.36216 0,32 32,0 0,-32 -32,0 z"/><path style="display:inline;fill:#f2f2f2;fill-opacity:1;stroke:none;stroke-width:16;stroke-miterlimit:4;stroke-dasharray:none;stroke-opacity:1" id="path4186" d="m 66.000002,954.36216 0,32 32,0 0,-32 -32,0 z"/><path style="display:inline;fill:#f2f2f2;fill-opacity:1;stroke:none;stroke-width:16;stroke-miterlimit:4;stroke-dasharray:none;stroke-opacity:1" id="path4184" d="m 30.000002,990.36216 0,32.00004 32,0 0,-32.00004 -32,0 z"/><path style="display:inline;fill:#f2f2f2;fill-opacity:1;stroke:none;stroke-width:16;stroke-miterlimit:4;stroke-dasharray:none;stroke-opacity:1" id="rect4146" d="m 66.000002,990.36216 0,32.00004 32,0 0,-32.00004 -32,0 z"/><path style="display:inline;fill:#87bf14;fill-opacity:1;stroke:none;stroke-width:16;stroke-miterlimit:4;stroke-dasharray:none;stroke-opacity:1" id="path4188-0" d="m 32.000002,956.36216 0,28 28,0 0,-28 -28,0 z"/><path style="display:inline;fill:#9b28b7;fill-opacity:1;stroke:none;stroke-width:16;stroke-miterlimit:4;stroke-dasharray:none;stroke-opacity:1" id="path4188-0-1" d="m 68.000002,956.36216 0,28 28,0 0,-28 -28,0 z"/><path style="display:inline;fill:#ffce41;fill-opacity:1;stroke:none;stroke-width:16;stroke-miterlimit:4;stroke-dasharray:none;stroke-opacity:1" id="path4188-0-2" d="m 68.000002,992.36216 0,28.00004 28,0 0,-28.00004 -28,0 z"/><path style="display:inline;fill:#2c5aa0;fill-opacity:1;stroke:none;stroke-width:16;stroke-miterlimit:4;stroke-dasharray:none;stroke-opacity:1" id="path4188-0-3" d="m 32.000002,992.36216 0,28.00004 28,0 0,-28.00004 -28,0 z"/></g><g id="layer4" style="display:inline"><path style="display:inline;fill:#f2f2f2;fill-opacity:1;stroke:none;stroke-width:16;stroke-miterlimit:4;stroke-dasharray:none;stroke-opacity:1" id="path4188-1-3" d="M 64.000002,15.916018 41.373049,38.544924 64.000002,61.171877 86.626955,38.544924 64.000002,15.916018 Z m 0,2.830078 L 83.79883,38.544924 64.000002,58.343752 44.201174,38.544924 64.000002,18.746096 Z M 38.544924,41.373049 15.916018,64.000002 38.544924,86.626955 61.171877,64.000002 38.544924,41.373049 Z m 50.910156,0 L 66.828127,64.000002 89.45508,86.626955 112.08398,64.000002 89.45508,41.373049 Z M 38.544924,44.201174 58.343752,64.000002 38.544924,83.79883 18.746096,64.000002 38.544924,44.201174 Z m 50.910156,0 19.79883,19.798828 L 89.45508,83.79883 69.656252,64.000002 89.45508,44.201174 Z M 64.000002,66.828127 41.373049,89.45508 64.000002,112.08398 86.626955,89.45508 64.000002,66.828127 Z m 0,2.828125 L 83.79883,89.45508 64.000002,109.25391 44.201174,89.45508 64.000002,69.656252 Z"/></g></svg>