<svg xmlns="http://www.w3.org/2000/svg" xmlns:svg="http://www.w3.org/2000/svg" id="svg2" width="128" height="128" version="1.1" viewBox="0 0 128 128"><defs id="defs4"><linearGradient id="c-5" x1="39.568" x2="73.974" y1="-62.572" y2="-28.166" gradientTransform="matrix(0.6428,-0.766,0.766,0.6428,32.7164,113.7844)" gradientUnits="userSpaceOnUse"><stop style="stop-color:#b11116" id="stop15-2" offset=".333"/><stop style="stop-color:#ef4136" id="stop17-3" offset="1"/></linearGradient><radialGradient id="a-7" cx="62.792" cy="66" r="41.75" gradientUnits="userSpaceOnUse"><stop id="stop24-0" offset=".366" style="stop-color:#9e0b0f"/><stop id="stop26-0" offset=".683" style="stop-color:#b11116"/><stop id="stop28-1" offset=".919" style="stop-color:#ed1c24"/><stop id="stop30-3" offset="1" style="stop-color:#fff"/></radialGradient><linearGradient id="d-2" x1="35.215" x2="89.074" y1="93.577" y2="39.718" gradientUnits="userSpaceOnUse"><stop style="stop-color:#ef4136" id="stop41-2" offset="0"/><stop style="stop-color:#b11116" id="stop43-6" offset="1"/></linearGradient><linearGradient id="b-8" x1="73.222" x2="111.876" y1="-1.96" y2="-5.342" gradientTransform="matrix(0.6428,0.766,-0.766,0.6428,31.6594,-34.5351)" gradientUnits="userSpaceOnUse"><stop style="stop-color:#ef4136" id="stop52-2" offset="0"/><stop style="stop-color:#b11116" id="stop54-4" offset=".753"/></linearGradient><radialGradient id="a-7-9" cx="62.792" cy="66" r="41.75" gradientUnits="userSpaceOnUse"><stop id="stop24-0-2" offset=".366" style="stop-color:#9e0b0f"/><stop id="stop26-0-7" offset=".683" style="stop-color:#b11116"/><stop id="stop28-1-0" offset=".919" style="stop-color:#ed1c24"/><stop id="stop30-3-7" offset="1" style="stop-color:#fff"/></radialGradient></defs><metadata id="metadata7"/><g id="layer1" transform="translate(0,-924.36216)" style="display:inline"><path style="display:inline;fill:#c21e1f;fill-opacity:1;stroke:none" id="path19-2" d="m 22.914246,948.5539 c -4.397927,5.21614 8.079913,23.01241 15.955271,30.78549 4.397928,-1.22733 8.489023,-3.78427 11.659622,-7.56853 3.170598,-3.78426 5.011591,-8.28447 5.420701,-12.78467 -8.898132,-6.44348 -28.637666,-15.64844 -33.035594,-10.43229 z"/></g><g id="layer2" style="display:inline"><circle style="color:#000;clip-rule:nonzero;display:inline;overflow:visible;visibility:visible;opacity:1;isolation:auto;mix-blend-mode:normal;color-interpolation:sRGB;color-interpolation-filters:linearRGB;solid-color:#000;solid-opacity:1;fill:#f25f64;fill-opacity:1;fill-rule:nonzero;stroke:none;stroke-width:.5;stroke-linecap:butt;stroke-linejoin:miter;stroke-miterlimit:4;stroke-dasharray:none;stroke-dashoffset:0;stroke-opacity:1;color-rendering:auto;image-rendering:auto;shape-rendering:auto;text-rendering:auto;enable-background:accumulate" id="path4878" cx="64" cy="64" r="43"/><circle style="fill:#a90f13;fill-opacity:1;stroke:none;stroke-width:2;stroke-linecap:butt;stroke-linejoin:miter;stroke-miterlimit:4;stroke-dasharray:none;stroke-opacity:1" id="path4259" cx="64" cy="64" r="37"/></g><g id="layer3" style="display:inline"><path id="path36-2" d="M 97.632143,59.444045 C 93.229762,58.829759 88.622619,58.93214 84.015476,59.955949 64.255952,64.35833 51.458333,83.298806 54.836905,102.75119 c 2.15,0.51191 4.402381,0.81905 6.757143,1.02381 4.095238,-0.20476 8.292857,-0.81905 12.490476,-1.74048 2.252381,-0.5119 4.402381,-1.12619 6.552381,-1.74048 1.12619,-0.5119 2.252381,-1.126186 3.378571,-1.740472 -3.071428,-15.357143 2.661905,-30.304762 13.616667,-39.109523 z" style="display:inline;fill:#ba141a;stroke:none"/><path id="path38-4" d="M 76.746429,34.053568 C 69.477381,33.029759 62.003571,33.234521 54.427381,34.974997 44.086905,37.227378 34.872619,41.936902 27.39881,48.386902 25.35119,53.198806 24.225,58.522616 24.225,64.051187 c 0,16.790477 10.340476,31.12381 24.980952,37.061913 1.842858,-0.61429 3.583334,-1.126198 5.426191,-1.842865 -5.528572,-25.595238 3.890476,-50.57619 22.114286,-65.216667 z" style="display:inline;fill:#ba141a;stroke:none"/></g><g id="layer4" style="display:inline"><path id="path45-9" d="m 99.487181,45.641024 c 1.641029,3.897436 2.564099,8.205128 2.564099,12.717949 0,17.846155 -14.461534,32.307693 -32.30769,32.307693 -17.846155,0 -32.410257,-14.461538 -32.410257,-32.410257 0,-17.846155 14.461538,-32.410257 32.410257,-32.410257 4.512821,0 8.820514,0.923077 12.717949,2.564103 C 76.923078,25.641023 70.666667,23.999998 64,23.999998 c -22.051282,0 -40,17.948719 -40,40 C 24,86.051281 41.948718,104 64,104 c 22.051282,0 40,-17.948719 40,-40.000002 0,-6.666665 -1.64102,-12.923077 -4.51282,-18.358974 z" style="display:inline;fill:#cd2724;fill-opacity:1;stroke:none"/></g><g id="layer5" style="display:inline"><ellipse style="display:inline;fill:#790003;fill-opacity:1;stroke:none" id="ellipse49-9" cx="89.895" cy="-40.975" rx="16.569" ry="7.057" transform="matrix(0.64281676,0.76601998,-0.76601998,0.64281676,0,0)"/><path style="display:inline;fill:#c21e1f;fill-opacity:1;stroke:none" id="path56-4" d="m 113.08545,22.491568 c -4.39793,-5.216146 -24.035179,3.988818 -32.933312,10.330015 0.40911,4.500205 2.250102,9.00041 5.420701,12.784673 3.1706,3.784263 7.261695,6.341197 11.659622,7.568526 7.773079,-7.670804 20.250919,-25.467068 15.852989,-30.683214 z"/></g></svg>