<svg xmlns="http://www.w3.org/2000/svg" xmlns:svg="http://www.w3.org/2000/svg" id="svg2" width="128" height="128" version="1.1" viewBox="0 0 128 128"><metadata id="metadata7"/><g id="layer1" transform="translate(0,-924.36216)" style="display:inline"><path style="fill:#2c55a2;fill-opacity:1;stroke:none;stroke-width:16;stroke-miterlimit:4;stroke-dasharray:none;stroke-opacity:1" id="path4439" d="m 64,945.36213 a 43,43 0 0 0 -43,43.00004 l 0,31.00003 a 12,12 0 0 0 12,12 l 31,0 a 43,43 0 0 0 43,-43.00003 43,43 0 0 0 -43,-43.00004 z"/></g><g id="layer2" style="display:inline"><path style="fill:#5475b4;fill-opacity:1;stroke:none;stroke-width:16;stroke-miterlimit:4;stroke-dasharray:none;stroke-opacity:1" id="path4266" d="M 76,34 A 18,18 0 0 0 58,52 l 0,10 -10,0 A 18,18 0 0 0 30,80 18,18 0 0 0 48,98 18,18 0 0 0 66,80 l 0,-10 10,0 A 18,18 0 0 0 94,52 18,18 0 0 0 76,34 Z m 0,8 A 10,10 0 0 1 86,52 10,10 0 0 1 76,62 L 66,62 66,52 A 10,10 0 0 1 76,42 Z m -28,28 10,0 0,10 A 10,10 0 0 1 48,90 10,10 0 0 1 38,80 10,10 0 0 1 48,70 Z"/></g><g id="layer3"><path style="fill:#f2f2f2;fill-opacity:1;stroke:none;stroke-width:16;stroke-miterlimit:4;stroke-dasharray:none;stroke-opacity:1" id="path4266-9" d="M 76,34 A 18,18 0 0 0 58,52 l 0,10 -10,0 a 4,4 0 0 0 -4,4 4,4 0 0 0 4,4 l 10,0 0,10 a 10,10 0 0 1 -10,9.998047 10,10 0 0 1 -7.050781,-2.917969 4,4 0 0 0 -0.01367,-0.01563 4,4 0 0 0 -5.65625,0 4,4 0 0 0 0,5.65625 4,4 0 0 0 0.25,0.228516 A 18,18 0 0 0 48,98 18,18 0 0 0 66,80 l 0,-10 10,0 a 4,4 0 0 0 4,-4 4,4 0 0 0 -4,-4 l -10,0 0,-10 a 10,10 0 0 1 10,-9.998047 10,10 0 0 1 7.064453,2.933594 l 0.0059,-0.0059 a 4,4 0 0 0 5.65625,0 4,4 0 0 0 0,-5.65625 4,4 0 0 0 -0.09961,-0.09375 18,18 0 0 0 -0.08789,-0.0918 A 18,18 0 0 0 76,34 Z"/></g></svg>