<svg xmlns="http://www.w3.org/2000/svg" xmlns:svg="http://www.w3.org/2000/svg" id="svg2" width="128" height="128" version="1.1" viewBox="0 0 128 128"><metadata id="metadata7"/><g id="layer1" transform="translate(0,-924.36216)"><rect style="fill:#7fb5e2;fill-opacity:1;stroke:none;stroke-width:5;stroke-linecap:round;stroke-linejoin:round;stroke-miterlimit:4;stroke-dasharray:none;stroke-opacity:1" id="rect4136" width="80" height="80" x="24" y="948.362" rx="4" ry="4"/><rect style="fill:#4090d4;fill-opacity:1;stroke:none;stroke-width:5;stroke-linecap:round;stroke-linejoin:round;stroke-miterlimit:4;stroke-dasharray:none;stroke-opacity:1" id="rect4203" width="60" height="60" x="368.18" y="876.867" rx="4" ry="4" transform="matrix(0.93969262,0.34202014,-0.34202014,0.93969262,0,0)"/><rect style="fill:#006bc6;fill-opacity:1;stroke:none;stroke-width:5;stroke-linecap:round;stroke-linejoin:round;stroke-miterlimit:4;stroke-dasharray:none;stroke-opacity:1" id="rect4205" width="38" height="38" x="45" y="969.362" rx="2" ry="2"/><path style="fill:#f2f2f2;fill-opacity:1;stroke:none;stroke-width:5;stroke-linecap:round;stroke-linejoin:round;stroke-miterlimit:4;stroke-dasharray:none;stroke-opacity:1" id="rect4138" d="M 55 51 L 55 56 L 55 61 L 55 66 L 55 77 L 62 77 L 62 66 L 73 66 L 73 61 L 62 61 L 62 56 L 73 56 L 73 51 L 62 51 L 55 51 z" transform="translate(0,924.36216)"/></g></svg>