<svg xmlns="http://www.w3.org/2000/svg" xmlns:svg="http://www.w3.org/2000/svg" id="svg2" width="128" height="128" version="1.1" viewBox="0 0 128 128"><defs id="defs4"><linearGradient id="c-7" x1="133.18" x2="133.18" y1="68.373" y2="58.227" gradientTransform="matrix(0.4546,0.8907,-0.8907,0.4546,105.1361,-79.1593)" gradientUnits="userSpaceOnUse"><stop style="stop-color:#d7df23" id="stop44-2" offset="0"/><stop style="stop-color:#f7941e" id="stop46-9" offset="1"/></linearGradient><linearGradient id="b-2" x1="216.062" x2="216.062" y1="242.768" y2="232.163" gradientTransform="matrix(-1,0,0,-1,266.2442,302.6653)" gradientUnits="userSpaceOnUse"><stop style="stop-color:#be1e2d" id="stop37-1" offset="0"/><stop style="stop-color:#fbb040" id="stop39-3" offset="1"/></linearGradient><linearGradient id="a" x1="63.681" x2="63.681" y1="24.591" y2="13.986" gradientTransform="translate(-41.6206,42.7571)" gradientUnits="userSpaceOnUse"><stop style="stop-color:#8dc63f" id="stop30-6" offset="0"/><stop style="stop-color:#009444" id="stop32-5" offset="1"/></linearGradient></defs><metadata id="metadata7"/><g id="layer1" transform="translate(0,-924.36216)" style="display:inline"><rect style="opacity:1;fill:#333;fill-opacity:1;fill-rule:nonzero;stroke:none;stroke-width:.5;stroke-linecap:butt;stroke-linejoin:miter;stroke-miterlimit:4;stroke-dasharray:none;stroke-opacity:1" id="rect4183" width="98" height="1" x="13.188" y="1005.362"/></g><g id="layer2" style="display:inline"><text style="font-style:normal;font-variant:normal;font-weight:400;font-stretch:normal;font-size:35px;line-height:125%;font-family:'Open Sans';-inkscape-font-specification:'Open Sans, Normal';text-align:start;letter-spacing:0;word-spacing:0;writing-mode:lr-tb;text-anchor:start;fill:#333;fill-opacity:1;stroke:none;stroke-width:1px;stroke-linecap:butt;stroke-linejoin:miter;stroke-opacity:1" id="text4815" x="9.706" y="74.873" xml:space="preserve"><tspan id="tspan4817" x="9.706" y="74.873">HAIKU</tspan></text></g><g id="layer3" style="display:inline"><path style="display:inline;fill:#40ab42;fill-opacity:1;stroke:none" id="path34-2" d="m 35.2,54.6 c 0,0 -0.8,-0.1 -2.7,0.1 -0.3,0 -0.8,0.1 -1.1,0.4 -0.2,0.2 -0.3,0.4 -0.4,1 -0.1,0.3 -0.2,0.5 -0.3,0.9 -0.1,0.4 -0.1,0.5 -0.1,0.5 -0.1,0 -0.3,-0.5 -0.4,-0.9 -0.1,-0.4 0,-0.7 0,-0.7 0.1,-0.3 0.4,-0.7 0.3,-0.8 -0.1,-0.1 -0.5,0.2 -0.9,0.4 -0.6,0.3 -0.3,0.1 -1.3,0.5 -0.7,0.3 -0.7,0.3 -1.3,0.6 -0.4,0.2 -0.6,0.2 -0.9,0.4 -0.4,0.2 -0.6,0.4 -0.7,0.4 -0.1,0 -0.1,0.1 -0.8,0.6 -0.5,0.4 -0.5,0.4 -0.6,0.4 -0.3,0.3 -0.5,0.5 -0.6,0.7 -0.2,0.2 -0.3,0.3 -0.3,0.5 -0.2,0.3 -0.2,0.5 -0.3,0.5 -0.1,0 -0.1,-0.3 -0.1,-0.7 0,-0.5 0.4,-0.8 0.4,-1 0,0 -0.3,0.1 -1.1,0.3 -0.4,0.1 -0.7,0.2 -1,0.3 -0.7,0.3 -1,0.4 -1.1,0.4 -0.5,0.2 -0.8,0.5 -1.2,0.8 -0.5,0.4 -0.8,0.7 -1,0.9 -0.1,0 -0.1,0 -0.2,0 -2.4,0 -3.8,-0.4 -4.8,-0.8 -0.9,-0.4 -1.6,-0.8 -2,-1.1 l -0.1,1 c 1.3,0.6 3.3,1.3 5.9,1.5 0.4,0 0.8,0 1.2,0 0.2,0.2 0.5,0.5 1.2,1 1.3,0.9 2.9,2 4.6,2.2 0.3,0 0.8,0.1 1.2,0.1 0.5,0 0.2,0 1.2,0 0.4,0 0.6,0 0.7,-0.1 0,-0.1 -0.2,-0.2 -0.5,-0.5 -0.2,-0.3 -0.4,-0.6 -0.3,-0.7 0.1,-0.1 0.2,0.1 0.6,0.3 0.1,0 0.4,0.2 0.8,0.3 0.3,0.1 0.5,0.1 0.8,0.1 0.3,0 0.5,0 0.8,-0.1 0.3,-0.1 0.6,-0.2 0.8,-0.3 0.9,-0.4 0.8,-0.7 1.9,-1.4 0.1,0 0.4,-0.2 0.4,-0.2 0,-0.1 -0.6,0 -1,-0.3 -0.3,-0.2 -0.6,-0.6 -0.6,-0.6 0,0 0.1,0 0.4,0.1 0.3,0.1 0.3,0 1,0.1 0.4,0 0.6,0.1 0.8,0 0.1,0 0.1,-0.1 0.2,-0.1 0.7,-0.4 1.6,-1.5 1.6,-1.5 0.8,-1 0.6,-0.8 1,-1.2 0.3,-0.3 0.6,-0.8 0.9,-1.2 0,0 0.1,-0.1 0.1,-0.2 0,-0.1 -0.1,-0.1 -0.1,-0.2 -0.2,-0.2 -0.5,-0.5 -0.5,-0.5 0,-0.1 0.6,0.3 1.1,0.1 0.5,-0.2 0.4,-0.7 1.1,-1.4 0.4,-0.3 0.8,-0.5 0.8,-0.6 -0.1,-0.1 -0.9,-0.1 -3.5,-0.3 z"/><path style="display:inline;fill:#d55534;fill-opacity:1;stroke:none" id="path41-2" d="m 39.308185,72.189842 c 0,0 0.8,0.1 2.7,-0.1 0.3,0 0.8,-0.1 1.1,-0.4 0.2,-0.2 0.3,-0.4 0.4,-1 0.1,-0.3 0.2,-0.5 0.3,-0.9 0.1,-0.4 0.1,-0.5 0.1,-0.5 0.1,0 0.3,0.5 0.4,0.9 0.1,0.4 0,0.7 0,0.7 -0.1,0.3 -0.4,0.7 -0.3,0.8 0.1,0.1 0.5,-0.2 0.9,-0.4 0.6,-0.3 0.3,-0.1 1.3,-0.5 0.7,-0.3 0.7,-0.3 1.3,-0.6 0.4,-0.2 0.6,-0.2 0.9,-0.4 0.4,-0.2 0.6,-0.4 0.7,-0.4 0.1,0 0.1,-0.1 0.8,-0.6 0.5,-0.4 0.5,-0.4 0.6,-0.4 0.3,-0.3 0.5,-0.5 0.6,-0.7 0.2,-0.2 0.3,-0.3 0.3,-0.5 0.4,-0.3 0.4,-0.5 0.5,-0.5 0.1,0 0.1,0.3 0.1,0.7 0,0.5 -0.4,0.8 -0.4,1 0,0 0.3,-0.1 1.1,-0.3 0.4,-0.1 0.7,-0.2 1,-0.3 0.7,-0.3 1,-0.4 1.1,-0.4 0.5,-0.2 0.8,-0.5 1.2,-0.8 0.5,-0.4 0.8,-0.7 1,-0.9 0.1,0 0.1,0 0.2,0 2.4,0 3.8,0.4 4.8,0.8 0.9,0.4 1.6,0.8 2,1.1 l 0.1,-1 c -1.3,-0.6 -3.3,-1.3 -5.9,-1.5 -0.4,0 -0.8,0 -1.2,0 -0.2,-0.2 -0.5,-0.5 -1.2,-1 -1.3,-0.9 -2.9,-2 -4.6,-2.2 -0.3,0 -0.8,-0.1 -1.2,-0.1 -0.5,0 -0.2,0 -1.2,0 -0.4,0 -0.6,0 -0.7,0.1 0,0.1 0.2,0.2 0.5,0.5 0.2,0.3 0.4,0.6 0.3,0.7 -0.1,0.1 -0.2,-0.1 -0.6,-0.3 -0.1,0 -0.4,-0.2 -0.8,-0.3 -0.3,-0.1 -0.5,-0.1 -0.8,-0.1 -0.3,0 -0.5,0 -0.8,0.1 -0.3,0.1 -0.6,0.2 -0.8,0.3 -0.9,0.4 -0.8,0.7 -1.9,1.4 -0.1,0 -0.4,0.2 -0.4,0.2 0,0.1 0.6,0 1,0.3 0.3,0.2 0.6,0.6 0.6,0.6 0,0 -0.1,0 -0.4,-0.1 -0.3,-0.1 -0.3,0 -1,-0.1 -0.4,0 -0.6,-0.1 -0.8,0 -0.1,0 -0.1,0.1 -0.2,0.1 -0.7,0.4 -1.6,1.5 -1.6,1.5 -0.8,1 -0.6,0.8 -1,1.2 -0.3,0.3 -0.6,0.8 -0.9,1.2 0,0 -0.1,0.1 -0.1,0.2 0,0.1 0.1,0.1 0.1,0.2 0.2,0.2 0.5,0.5 0.5,0.5 0,0.1 -0.6,-0.3 -1.1,-0.1 -0.5,0.2 -0.4,0.7 -1.1,1.4 -0.4,0.3 -0.8,0.5 -0.8,0.6 -0.1,0.1 0.7,0.1 3.3,0.3 z"/><path style="display:inline;fill:#ebb120;fill-opacity:1;stroke:none" id="path48-5" d="m 117.1,72.684214 c 0,0 -0.3,-0.7 -1.3,-2.5 -0.2,-0.3 -0.4,-0.7 -0.8,-0.8 -0.2,-0.1 -0.5,0 -1,0 -0.3,0 -0.6,0.1 -0.9,0.2 -0.4,0.1 -0.5,0.2 -0.5,0.1 -0.1,-0.1 0.2,-0.5 0.6,-0.8 0.3,-0.2 0.6,-0.3 0.6,-0.3 0.3,-0.1 0.7,0 0.8,-0.1 0,-0.1 -0.5,-0.4 -0.8,-0.7 -0.5,-0.5 -0.2,-0.2 -1,-0.9 -0.6,-0.5 -0.6,-0.5 -1.1,-1 -0.3,-0.3 -0.4,-0.4 -0.8,-0.7 -0.3,-0.3 -0.6,-0.4 -0.7,-0.5 -0.1,0 -0.1,-0.1 -0.8,-0.5 -0.5,-0.3 -0.6,-0.3 -0.6,-0.3 -0.4,-0.2 -0.7,-0.2 -0.9,-0.3 -0.2,-0.1 -0.4,-0.1 -0.6,-0.1 -0.3,0 -0.5,0.1 -0.6,0 0,-0.1 0.2,-0.3 0.5,-0.4 0.4,-0.2 0.9,0 1,-0.1 0,-0.1 -0.2,-0.3 -0.8,-0.9 -0.3,-0.3 -0.5,-0.6 -0.7,-0.8 -0.5,-0.5 -0.8,-0.8 -0.8,-0.8 -0.4,-0.3 -0.8,-0.5 -1.2,-0.7 -0.6,-0.3 -0.9,-0.4 -1.2,-0.5 0,-0.1 -0.1,-0.1 -0.1,-0.2 -1.1,-2.2 -1.4,-3.7 -1.5,-4.8 -0.1,-1 -0.1,-1.8 0,-2.3 l -0.9,0.4 c 0.1,1.4 0.4,3.7 1.4,6.2 0.2,0.4 0.3,0.8 0.5,1.1 -0.1,0.3 -0.2,0.7 -0.3,1.5 -0.2,1.6 -0.4,3.6 0.2,5.3 0.1,0.3 0.3,0.7 0.5,1.2 0.2,0.5 0.1,0.2 0.6,1.1 0.2,0.4 0.3,0.6 0.4,0.6 0.1,0 0.1,-0.3 0.3,-0.7 0.1,-0.3 0.4,-0.6 0.5,-0.6 0.1,0 0,0.3 0,0.7 0,0.1 0,0.4 0.1,0.9 0.1,0.3 0.2,0.5 0.3,0.8 0.1,0.2 0.2,0.5 0.4,0.8 0.2,0.3 0.4,0.5 0.6,0.6 0.8,0.6 0.9,0.5 2.1,1.1 0.1,0 0.3,0.3 0.4,0.2 0.1,-0.1 -0.3,-0.6 -0.2,-1.1 0,-0.4 0.2,-0.8 0.3,-0.8 0.1,0 0,0.1 0.1,0.4 0.1,0.3 0.1,0.3 0.4,0.9 0.2,0.4 0.2,0.6 0.4,0.8 0.1,0.1 0.1,0.1 0.2,0.1 0.7,0.5 2,0.8 2,0.8 1.2,0.3 1,0.2 1.4,0.4 0.5,0.2 0.9,0.1 1.4,0.3 0,0 0.1,0 0.2,0 0.1,0 0.1,-0.2 0.1,-0.2 0,-0.3 0.2,-0.7 0.3,-0.7 0.1,0 0,0.7 0.4,1 0.3,0.3 0.7,0 1.7,0.4 0.5,0.2 0.8,0.6 0.9,0.5 -0.2,-0.1 -0.5,-0.8 -1.5,-3.3 z"/></g></svg>