<svg xmlns="http://www.w3.org/2000/svg" xmlns:svg="http://www.w3.org/2000/svg" id="svg2" width="128" height="128" version="1.1" viewBox="0 0 128 128"><defs id="defs4"><linearGradient id="blue" x1="8" x2="62.381" y1="69.983" y2="69.983" gradientUnits="userSpaceOnUse"><stop id="stop9" offset="0" style="stop-color:#00aeef"/><stop id="stop11" offset="1" style="stop-color:#1c75bc"/></linearGradient></defs><metadata id="metadata7"/><g id="layer1" transform="translate(0,-924.36216)"><path style="fill:#2c55a2;fill-opacity:1;stroke:none" id="path13" d="m 23.669556,967.43745 c -31.6318245,47.17645 -4.013745,75.42805 38.479072,46.45695 -51.128213,20.2588 -53.6872956,-10.852 -38.479072,-46.45695 z"/><g id="g15" transform="matrix(1.0065666,0,0,1.0069999,-2.7881569,923.93074)" style="fill:#fbb040;fill-opacity:1;stroke:none"><path style="fill:#fbb040;fill-opacity:1;stroke:none" id="path17" d="m 110.7,62.8 0.3,-0.2 c 0.3,-0.2 0.7,-0.1 0.9,0.2 l 3.4,5.8 c 0.2,0.3 0.1,0.7 -0.2,0.9 l -0.3,0.2 c -0.3,0.2 -0.7,0.1 -0.9,-0.2 l -3.4,-5.8 c -0.2,-0.3 -0.1,-0.7 0.2,-0.9 z"/><path style="fill:#fbb040;fill-opacity:1;stroke:none" id="path19" d="m 104.5,52 0.3,-0.2 c 0.3,-0.2 0.7,-0.1 0.9,0.2 l 3.4,5.8 c 0.2,0.3 0.1,0.7 -0.2,0.9 l -0.3,0.2 c -0.3,0.2 -0.7,0.1 -0.9,-0.2 l -3.4,-5.8 c -0.2,-0.3 -0.1,-0.7 0.2,-0.9 z"/><path style="fill:#fbb040;fill-opacity:1;stroke:none" id="path21" d="m 108.5,62.6 0.3,0.2 c 0.3,0.2 0.4,0.6 0.2,0.9 l -3.4,5.8 c -0.2,0.3 -0.6,0.4 -0.9,0.2 l -0.3,-0.2 c -0.3,-0.2 -0.4,-0.6 -0.2,-0.9 l 3.4,-5.8 c 0.2,-0.3 0.6,-0.4 0.9,-0.2 z"/><path style="fill:#fbb040;fill-opacity:1;stroke:none" id="path23" d="M 114.7,51.8 115,52 c 0.3,0.2 0.4,0.6 0.2,0.9 l -3.4,5.8 c -0.2,0.3 -0.6,0.4 -0.9,0.2 l -0.3,-0.2 c -0.3,-0.2 -0.4,-0.6 -0.2,-0.9 l 3.4,-5.8 c 0.2,-0.2 0.6,-0.3 0.9,-0.2 z"/><path style="fill:#fbb040;fill-opacity:1;stroke:none" id="path25" d="m 120,60.6 0,0.4 c 0,0.4 -0.3,0.6 -0.6,0.6 l -6.7,0 c -0.4,0 -0.6,-0.3 -0.6,-0.6 l 0,-0.4 c 0,-0.4 0.3,-0.6 0.6,-0.6 l 6.7,0 c 0.3,-0.1 0.6,0.2 0.6,0.6 z"/></g><path style="fill:#fbb040;fill-opacity:1;stroke:none" id="path44" d="m 58.511763,1009.3244 -24.86218,9.1637 c -1.207849,0.5034 -2.415799,-0.8056 -1.811824,-2.0141 l 11.575548,-23.86585 c 0.201258,-0.5035 0.201258,-1.1077 -0.201358,-1.5105 L 26.905533,970.25274 c -0.805233,-1.00699 0,-2.51749 1.308578,-2.31609 l 26.271388,3.7259 c 0.603945,0.1007 1.10722,-0.2014 1.409197,-0.6042 l 14.69587,-22.0533 c 0.704594,-1.1077 2.415759,-0.70489 2.617067,0.60421 l 4.630209,26.08129 c 0.100659,0.5035 0.503286,1.007 1.006571,1.10769 l 25.466127,7.14971 c 1.30854,0.4028 1.40919,2.1147 0.30197,2.71889 l -23.352338,12.38611 c -0.503286,0.30209 -0.805253,0.80559 -0.805253,1.30905 l 1.006561,26.4842 c 0.100659,1.309 -1.509846,2.0139 -2.516418,1.1076 L 60.02162,1009.6265 c -0.402637,-0.4028 -1.006571,-0.5035 -1.509857,-0.3021 z"/></g></svg>