<svg xmlns="http://www.w3.org/2000/svg" xmlns:svg="http://www.w3.org/2000/svg" id="svg2" width="128" height="128" version="1.1" viewBox="0 0 128 128"><defs id="defs4"><linearGradient id="linearGradient4198" x1="59.96" x2="59.96" y1="15" y2="23.711" gradientUnits="userSpaceOnUse"><stop id="stop4200" offset="0" style="stop-color:#c7eafb"/><stop id="stop4202" offset="1" style="stop-color:#00a5ef;stop-opacity:1"/></linearGradient><linearGradient id="a" x1="64" x2="64" y1="53.352" y2="113" gradientUnits="userSpaceOnUse"><stop style="stop-color:#1a6fb2;stop-opacity:1" id="stop11" offset="0"/><stop style="stop-color:#001d33;stop-opacity:1" id="stop13" offset="1"/></linearGradient><linearGradient id="b" x1="59.96" x2="59.96" y1="15" y2="23.711" gradientUnits="userSpaceOnUse"><stop style="stop-color:#c7eafb" id="stop46" offset="0"/><stop style="stop-color:#00aeef" id="stop48" offset="1"/></linearGradient><linearGradient id="b-6" x1="73.027" x2="73.027" y1="21.965" y2="31.765" gradientUnits="userSpaceOnUse"><stop style="stop-color:#c7eafb" id="stop39" offset="0"/><stop style="stop-color:#00aeef" id="stop41" offset="1"/></linearGradient><linearGradient id="b-0" x1="61.61" x2="61.61" y1="30.131" y2="41.02" gradientUnits="userSpaceOnUse"><stop style="stop-color:#c7eafb" id="stop32" offset="0"/><stop style="stop-color:#00aeef" id="stop34" offset="1"/></linearGradient><linearGradient id="b-8" x1="75.205" x2="75.205" y1="40.858" y2="52.835" gradientUnits="userSpaceOnUse"><stop style="stop-color:#c7eafb" id="stop25" offset="0"/><stop style="stop-color:#00aeef" id="stop27" offset="1"/></linearGradient><linearGradient id="b-1" x1="52.201" x2="52.201" y1="42.458" y2="55.525" gradientUnits="userSpaceOnUse"><stop style="stop-color:#c7eafb" id="stop18" offset="0"/><stop style="stop-color:#00aeef" id="stop20" offset="1"/></linearGradient></defs><metadata id="metadata7"/><g id="layer1" transform="translate(0,-924.36216)"><path style="color:#000;font-style:normal;font-variant:normal;font-weight:400;font-stretch:normal;font-size:medium;line-height:normal;font-family:sans-serif;text-indent:0;text-align:start;text-decoration:none;text-decoration-line:none;text-decoration-style:solid;text-decoration-color:#000;letter-spacing:normal;word-spacing:normal;text-transform:none;direction:ltr;block-progression:tb;writing-mode:lr-tb;baseline-shift:baseline;text-anchor:start;white-space:normal;clip-rule:nonzero;display:inline;overflow:visible;visibility:visible;opacity:1;isolation:auto;mix-blend-mode:normal;color-interpolation:sRGB;color-interpolation-filters:linearRGB;solid-color:#000;solid-opacity:1;fill:#2d3852;fill-opacity:1;fill-rule:nonzero;stroke:none;stroke-width:13.95507145;stroke-linecap:butt;stroke-linejoin:round;stroke-miterlimit:10;stroke-dasharray:none;stroke-dashoffset:0;stroke-opacity:1;color-rendering:auto;image-rendering:auto;shape-rendering:auto;text-rendering:auto;enable-background:accumulate" id="path4226" d="m 97.569855,995.75226 c -0.0099,-9.89547 -4.114792,-19.33576 -11.379651,-25.93165 a 4.6851659,4.5854983 0 0 0 -6.421565,0.0462 c -3.712155,3.46911 -9.550022,5.69067 -15.768636,5.69072 -6.209551,-0.008 -12.036338,-2.23069 -15.741107,-5.69585 a 4.6851659,4.5854983 0 0 0 -6.417617,-0.0513 c -7.278818,6.59166 -11.395288,16.0362 -11.411133,25.93938 a 4.6851659,4.5854983 0 0 0 0,0.01 c 0,18.91214 14.928717,34.60244 33.569857,34.60244 18.641074,-10e-5 33.569867,-15.6903 33.569852,-34.60244 a 4.6851659,4.5854983 0 0 0 0,-0.01 z m -9.369394,0.01 c 7e-6,14.24464 -10.935932,25.43234 -24.200458,25.43234 -13.262577,0 -24.197085,-11.1843 -24.200442,-25.42594 0.0094,-6.0815 2.186874,-11.82058 5.85371,-16.35598 5.242873,3.42887 11.647867,5.31241 18.341495,5.31973 a 4.6851659,4.5854983 0 0 0 0.0067,0 c 6.701819,-7e-5 13.116416,-1.88146 18.367682,-5.31203 3.655932,4.53482 5.825807,10.26878 5.832776,16.34188 z"/><circle style="fill:#01a4f4;fill-opacity:1;stroke:none;stroke-width:14;stroke-linejoin:round;stroke-miterlimit:10;stroke-dasharray:none;stroke-dashoffset:0;stroke-opacity:1" id="path4241" cx="963.866" cy="-56.544" r="6.5" transform="matrix(0,1,-1,0,0,0)"/><circle style="fill:#01a4f4;fill-opacity:1;stroke:none;stroke-width:14;stroke-linejoin:round;stroke-miterlimit:10;stroke-dasharray:none;stroke-dashoffset:0;stroke-opacity:1" id="path4243" cx="960.386" cy="-74.268" r="6" transform="matrix(0,1,-1,0,0,0)"/><circle style="fill:#01a4f4;fill-opacity:1;stroke:none;stroke-width:14;stroke-linejoin:round;stroke-miterlimit:10;stroke-dasharray:none;stroke-dashoffset:0;stroke-opacity:1" id="path4245" cx="951.654" cy="-63.097" r="5.5" transform="matrix(0,1,-1,0,0,0)"/><circle style="fill:#01a4f4;fill-opacity:1;stroke:none;stroke-width:14;stroke-linejoin:round;stroke-miterlimit:10;stroke-dasharray:none;stroke-dashoffset:0;stroke-opacity:1" id="path4247" cx="942.922" cy="-72.908" r="5" transform="matrix(0,1,-1,0,0,0)"/><circle style="fill:#01a4f4;fill-opacity:1;stroke:none;stroke-width:14;stroke-linejoin:round;stroke-miterlimit:10;stroke-dasharray:none;stroke-dashoffset:0;stroke-opacity:1" id="path4249" cx="936.588" cy="-60.778" r="4.5" transform="matrix(0,1,-1,0,0,0)"/></g></svg>