<svg xmlns="http://www.w3.org/2000/svg" xmlns:svg="http://www.w3.org/2000/svg" xmlns:xlink="http://www.w3.org/1999/xlink" id="svg2" width="128" height="128" version="1.1" viewBox="0 0 120 120"><defs id="defs4"><linearGradient id="main"><stop style="stop-color:#fff;stop-opacity:0" id="stop915" offset="0"/><stop id="stop917" offset=".232" style="stop-color:#fff;stop-opacity:1"/><stop style="stop-color:#fff;stop-opacity:1" id="stop919" offset="1"/></linearGradient><linearGradient id="linearGradient1299" x1="-584.199" x2="-414.387" y1="782.336" y2="880.377" gradientTransform="translate(864.69589,-1491.3405)" gradientUnits="userSpaceOnUse" xlink:href="#main"/><linearGradient id="linearGradient1713" x1="200.597" x2="389.576" y1="351.411" y2="460.518" gradientTransform="translate(210.82018,-765.27605)" gradientUnits="userSpaceOnUse" xlink:href="#main"/></defs><metadata id="metadata7"/><g style="display:none" id="layer1" transform="matrix(0.09048806,0,0,0.09048806,-14.15991,84.454917)"><rect id="rect995" width="7947.036" height="7145.461" x="-1045.605" y="-2102.425" style="opacity:1;fill:#040404;fill-opacity:1;stroke-width:10.3605"/></g><g style="display:inline;opacity:1" id="layer3" transform="translate(-156.48372,537.56136)"><g style="stroke-width:11.0512" id="g955" transform="matrix(0.01624138,0,0,0.01624138,168.94221,-501.44115)"><g id="g869" transform="matrix(11.047619,0,0,11.047619,-1572.2888,9377.7107)"><g id="g932" transform="rotate(-60,226.35754,-449.37199)" style="stroke-width:11.0512"><path id="path3336-6" d="m 449.71876,-420.51322 122.19683,211.67512 -56.15706,0.5268 -32.6236,-56.8692 -32.85645,56.5653 -27.90237,-0.011 -14.29086,-24.6896 46.81047,-80.4901 -33.22946,-57.8257 z" style="opacity:1;fill:url(#linearGradient1713);fill-opacity:1;fill-rule:evenodd;stroke:none;stroke-width:33.1535;stroke-linecap:butt;stroke-linejoin:round;stroke-miterlimit:4;stroke-dasharray:none;stroke-opacity:1"/></g><path id="path4260-0" d="m 309.54892,-710.38827 122.19683,211.67512 -56.15706,0.5268 -32.6236,-56.8692 -32.85645,56.5653 -27.90237,-0.011 -14.29086,-24.6896 46.81047,-80.4901 -33.22946,-57.8256 z" style="color:#000;clip-rule:nonzero;display:inline;overflow:visible;visibility:visible;opacity:1;isolation:auto;mix-blend-mode:normal;color-interpolation:sRGB;color-interpolation-filters:linearRGB;solid-color:#000;solid-opacity:1;fill:url(#linearGradient1299);fill-opacity:1;fill-rule:evenodd;stroke:none;stroke-width:33.1535;stroke-linecap:butt;stroke-linejoin:round;stroke-miterlimit:4;stroke-dasharray:none;stroke-dashoffset:0;stroke-opacity:1;color-rendering:auto;image-rendering:auto;shape-rendering:auto;text-rendering:auto;enable-background:accumulate"/><use id="use3439-6" width="100%" height="100%" x="0" y="0" transform="rotate(60,728.23563,-692.24036)" xlink:href="#path3336-6" style="stroke-width:11.0512"/><use id="use3449-5" width="100%" height="100%" x="0" y="0" transform="rotate(180,477.5036,-570.81898)" xlink:href="#path3336-6" style="stroke-width:11.0512"/><use style="display:inline;stroke-width:11.0512" id="use4354-5" width="100%" height="100%" x="0" y="0" transform="rotate(120,407.33916,-716.08356)" xlink:href="#path4260-0"/><use style="display:inline;stroke-width:11.0512" id="use4362-2" width="100%" height="100%" x="0" y="0" transform="rotate(-120,407.28823,-715.86995)" xlink:href="#path4260-0"/></g></g></g></svg>