<svg xmlns="http://www.w3.org/2000/svg" xmlns:svg="http://www.w3.org/2000/svg" id="svg2" width="128" height="128" version="1.1" viewBox="0 0 128 128"><defs id="defs4"><linearGradient id="c-5" x1="39.568" x2="73.974" y1="-62.572" y2="-28.166" gradientTransform="matrix(0.6428,-0.766,0.766,0.6428,32.7164,113.7844)" gradientUnits="userSpaceOnUse"><stop style="stop-color:#b11116" id="stop15-2" offset=".333"/><stop style="stop-color:#ef4136" id="stop17-3" offset="1"/></linearGradient><radialGradient id="a-7" cx="62.792" cy="66" r="41.75" gradientUnits="userSpaceOnUse"><stop id="stop24-0" offset=".366" style="stop-color:#9e0b0f"/><stop id="stop26-0" offset=".683" style="stop-color:#b11116"/><stop id="stop28-1" offset=".919" style="stop-color:#ed1c24"/><stop id="stop30-3" offset="1" style="stop-color:#fff"/></radialGradient><linearGradient id="d-2" x1="35.215" x2="89.074" y1="93.577" y2="39.718" gradientUnits="userSpaceOnUse"><stop style="stop-color:#ef4136" id="stop41-2" offset="0"/><stop style="stop-color:#b11116" id="stop43-6" offset="1"/></linearGradient><linearGradient id="b-8" x1="73.222" x2="111.876" y1="-1.96" y2="-5.342" gradientTransform="matrix(0.6428,0.766,-0.766,0.6428,31.6594,-34.5351)" gradientUnits="userSpaceOnUse"><stop style="stop-color:#ef4136" id="stop52-2" offset="0"/><stop style="stop-color:#b11116" id="stop54-4" offset=".753"/></linearGradient><radialGradient id="a-7-9" cx="62.792" cy="66" r="41.75" gradientUnits="userSpaceOnUse"><stop id="stop24-0-2" offset=".366" style="stop-color:#9e0b0f"/><stop id="stop26-0-7" offset=".683" style="stop-color:#b11116"/><stop id="stop28-1-0" offset=".919" style="stop-color:#ed1c24"/><stop id="stop30-3-7" offset="1" style="stop-color:#fff"/></radialGradient></defs><metadata id="metadata7"/><g id="layer2"><g id="g895" transform="matrix(0.13333333,0,0,-0.13333333,-203.23632,307.62195)"><path style="fill:#f26711;fill-opacity:1;fill-rule:nonzero;stroke:none;stroke-width:.212256" id="path901" d="m 2346.8486,2146.7828 c -108.8107,52.2234 -207.257,27.2834 -317.3645,-5.6672 -110.8463,-33.1543 -209.4432,-51.0984 -320.2045,-5.9071 12.067,-21.5609 18.1071,-32.3392 30.1806,-53.8832 11.084,-19.8182 22.1828,-39.6344 33.2711,-59.4443 12.0709,-21.5566 18.1054,-32.3265 30.1785,-53.8789 88.1879,-24.9252 161.2208,7.3992 239.5877,46.5774 94.1056,47.0188 179.1076,89.3193 286.6277,64.8101 -90.8644,45.5012 -173.2366,34.2241 -268.2464,8.4478 93.0189,47.3542 180.5955,84.1847 285.9698,58.9454"/><path id="path897" d="M 22.867188 23.148438 C 22.696927 23.148731 22.490904 23.198848 22.246094 23.333984 C 21.43188 23.785651 21.855469 24.619141 21.855469 24.619141 L 50.447266 85.080078 L 62.076172 109.66797 C 62.076172 109.66797 63.247185 111.9824 65.761719 110.70312 C 68.275385 109.42395 67.009766 107.41992 67.009766 107.41992 L 55.433594 85.080078 L 23.572266 23.601562 C 23.572266 23.601562 23.377969 23.147558 22.867188 23.148438 z" transform="matrix(7.5000002,0,0,-7.5000002,1524.2724,2307.1647)" style="fill:#777;fill-opacity:1;fill-rule:nonzero;stroke:none;stroke-width:.0283008"/></g></g></svg>