<svg xmlns="http://www.w3.org/2000/svg" xmlns:svg="http://www.w3.org/2000/svg" xmlns:xlink="http://www.w3.org/1999/xlink" id="svg2" width="128" height="128" version="1.1" viewBox="0 0 1600 1600"><defs id="defs6"><linearGradient id="linearGradient6112"><stop style="stop-color:#2959b1;stop-opacity:1" id="stop6108" offset="0"/><stop style="stop-color:#0597c9;stop-opacity:1" id="stop6110" offset="1"/></linearGradient><linearGradient id="linearGradient6104"><stop style="stop-color:#a6a6e7;stop-opacity:.94999999" id="stop6100" offset="0"/><stop style="stop-color:#7fd0ff;stop-opacity:1" id="stop6102" offset="1"/></linearGradient><linearGradient id="linearGradient6106" x1="273.255" x2="1266.8" y1="325.988" y2="1319.533" gradientUnits="userSpaceOnUse" xlink:href="#linearGradient6104"/><linearGradient id="linearGradient6114" x1="275.652" x2="1281.182" y1="330.782" y2="1336.312" gradientUnits="userSpaceOnUse" xlink:href="#linearGradient6112"/></defs><g id="g8" transform="matrix(0.85479642,0,0,0.85460676,121.83199,118.19224)"><path id="Hammer" d="m 454.818,1240.5905 c -33.66917,-24.6276 -62.24881,-55.9356 -90.29068,-86.6679 -21.85066,-30.782 10.22625,-59.229 30.94242,-79.2747 C 528.1852,939.62727 662.58422,806.27602 796.3997,672.34837 L 930.62444,806.61961 C 788.4673,947.59484 647.50752,1089.7932 504.22421,1229.6208 c -11.65413,14.3696 -32.8982,18.2672 -49.40621,10.9697 z m 662.048,-381.11687 c -25.652,-11.22638 -43.0432,-35.24629 -63.6421,-53.62097 -8.5167,-8.52604 -16.9942,-17.09128 -25.4928,-25.63539 11.1105,-11.13188 22.2211,-22.26374 33.3317,-33.39558 l -34.6037,-36.10736 c -11.1645,11.18586 -22.3289,22.37173 -33.49334,33.55761 -44.45899,-44.45368 -88.91798,-88.90735 -133.37697,-133.36102 19.3339,-34.92683 -2.17859,-74.66865 -17.48618,-106.90656 -38.2569,-73.80498 -94.65335,-135.77172 -150.28004,-196.68904 56.31739,-10.72307 115.62903,-3.43718 168.02856,19.79693 68.52463,27.62027 125.6787,76.11064 177.03427,128.13014 41.3247,40.77603 84.2386,80.08379 123.6678,122.70103 -11.3852,10.89511 -22.7704,21.79018 -34.1557,32.68523 11.6452,11.57501 23.2904,23.15005 34.9355,34.7251 11.3856,-11.34254 22.7712,-22.68506 34.1569,-34.02755 24.9972,26.48388 52.4113,51.00738 75.0878,79.44599 14.5091,23.79247 -0.5336,51.4236 -20.0218,66.85283 l -101.5879,97.91801 c -9.5957,5.70302 -21.4413,4.69451 -32.102,3.9306 z" style="display:inline;fill:#fff;fill-opacity:1;stroke-width:1.59758"/><path id="N" d="m 930.46289,103.37695 c 2.82894,5.4043 4.56356,-1.48931 0,0 z M 361.34154,244.34662 c -48.55486,31.37229 -49.88942,30.33682 -83.51518,76.22799 1.04165,294.32872 0.46869,660.05095 0.61895,954.38049 20.53545,30.326 57.48289,57.5902 83.4517,73.7241 l 864.58929,1.0786 c 27.5094,-21.0192 75.8283,-65.9407 83.6353,-80.9057 0.2839,-259.1863 0.5057,-684.54291 -0.1763,-943.72833 -44.0141,-57.57992 -54.4164,-54.74215 -91.614,-82.29768 l -143.913,1.87563 1.3097,247.68627 83.982,85.63183 -32.8901,32.84769 34.602,34.81089 34.4094,-30.46041 71.3918,72.7258 c 10.9536,11.15826 8.5297,44.80985 -10.786,63.57195 l -105.9388,102.90237 c -10.0715,8.06413 -33.8509,5.42724 -34.3513,5.03811 l -41.8946,-32.57629 -4.4399,181.18057 -144.01289,-195.85768 -172.59332,171.36776 134.24685,196.34932 -331.29296,-1.166 -46.59117,45.1492 c -34.67566,33.6025 -45.26188,20.1983 -77.39245,0.3322 l -43.89239,-47.906 c -48.9406,-53.4158 -17.74027,-65.3168 -0.87977,-93.6318 L 537.91604,929.49611 524.62299,665.75087 639.15463,827.11142 797.11994,673.25942 917.22428,793.1609 549.92385,294.0469 512.11778,242.43039 Z m -83.11888,1033.21978 0.004,0.01 z" style="display:inline;fill:url(#linearGradient6106);fill-opacity:1;stroke-width:1.33333"/><path style="display:inline;fill:url(#linearGradient6114);fill-opacity:1;stroke-width:1.333;stroke-dasharray:none" id="Circle-Fill" d="m 760,1499.1953 c -143.34149,-8.2147 -287.89116,-57.8574 -398.28897,-150.2133 288.21991,-0.7268 576.45232,-0.3961 864.66977,0.9975 C 1095.4992,1453.6309 926.64746,1506.6094 760,1499.1953 Z M 264.36248,1259.6667 C 85.422622,1058.3939 39.426381,751.06786 154.30782,507.175 c 30.17761,-68.42772 72.67777,-131.41748 123.09313,-186.55012 2.24623,317.999 1.20824,636.03176 0.73441,954.04182 l -4.26495,-4.4062 z m 1045.85962,10.4314 c -1.3758,-315.80305 -1.3213,-631.62926 0.2078,-947.43143 192.7803,203.77361 240.8879,528.18248 115.376,779.27543 -30.2421,60.8539 -65.4717,119.6998 -115.5838,168.156 z M 557,1179.4276 C 621.64239,1113.0654 685.97804,1048.9282 752.4274,984.37534 801.05103,1048.42 852.43567,1113.4948 898.01432,1179.7638 785.37089,1181.4671 669.64886,1180.7047 557,1179.4276 Z M 1069.7958,1007.9153 512.86849,245.33333 C 462.35988,245.02825 411.8086,246.15386 361.33333,244.24087 585.5181,63.195916 924.41471,45.629771 1166.1152,202.80049 c 22.9874,14.39188 89.3862,52.38344 23.5009,42.56233 L 1074,246 l 1.4276,246.83333 C 984.47342,395.65045 847.13722,276.36217 692.08682,306.54602 704.91346,332.9228 894.45147,490.64437 861.60657,611.0794 l 130.54373,132.7217 34.3325,-33.00636 34.6839,36.2453 -33.4623,33.47209 46.5208,45.97492 z M 525.17909,668.78642 638.83593,828.07269 539.16667,928.32281 Z"/></g></svg>