<svg xmlns="http://www.w3.org/2000/svg" xmlns:svg="http://www.w3.org/2000/svg" id="svg2" width="128" height="128" version="1.1" viewBox="0 0 128 128"><defs id="defs4"><linearGradient id="a-4" x1="75.316" x2="75.316" y1="22.683" y2="82.685" gradientUnits="userSpaceOnUse"><stop style="stop-color:#00aeef" id="stop18" offset=".349"/><stop style="stop-color:#0084b6" id="stop20" offset="1"/></linearGradient><linearGradient id="a" x1="64" x2="64" y1="18" y2="110" gradientUnits="userSpaceOnUse"><stop style="stop-color:#00aeef" id="stop11" offset=".349"/><stop style="stop-color:#0084b6" id="stop13" offset="1"/></linearGradient></defs><metadata id="metadata7"/><g id="layer2"><path style="fill:#007dc5;fill-opacity:1;stroke:none;stroke-width:1;stroke-miterlimit:10;stroke-dasharray:none;stroke-dashoffset:0;stroke-opacity:1" id="path4226" d="M 61.978517,18.052735 A 46,46 0 0 0 44.558595,22.310548 46,46 0 0 0 22.310545,83.441407 46,46 0 0 0 83.441407,105.68945 46,46 0 0 0 108.63281,74.970704 35,35 0 0 1 93.29297,88.958985 35,35 0 0 1 46.779298,72.029298 35,35 0 0 1 63.708985,25.517579 35,35 0 0 1 84.25586,22.718751 46,46 0 0 0 61.978517,18.052735 Z m 17.55664,9.203125 A 30,30 0 0 0 65.822267,30.048829 30,30 0 0 0 51.312501,69.916017 30,30 0 0 0 91.179689,84.427735 30,30 0 0 0 105.68945,44.558595 30,30 0 0 0 79.535157,27.25586 Z m -1.941406,4.998047 A 25,25 0 0 1 101.1582,46.671876 25,25 0 0 1 89.066407,79.896485 25,25 0 0 1 55.843751,67.802735 25,25 0 0 1 67.935548,34.580079 25,25 0 0 1 77.593751,32.253907 Z"/></g></svg>