<svg xmlns="http://www.w3.org/2000/svg" xmlns:svg="http://www.w3.org/2000/svg" id="svg-parabola_officialIcon_default" width="128" height="128" version="1.1" viewBox="0 0 2048 2048"><title id="title-parabola_officialIcon_default">Parabola Official Icon (Default Color)</title><metadata id="metadata-parabola_officialIcon_default"/><path id="path-parabola_officialIcon_default" d="m 1484.2823,375.82472 c -39.6113,3.78448 -81.6679,10.74156 -125.5366,20.01997 l -277.924,285.22476 c 31.8564,3.83288 61.0103,10.15907 87.6167,19.07796 z m 195.7246,16.01598 -384.6185,394.51056 c 108.17,140.18042 70.0667,421.76674 -157.5686,885.82394 168.4156,-183.8432 903.4347,-1097.44624 567.1531,-1269.73554 -7.8075,-4.00054 -16.3452,-7.44105 -24.966,-10.59896 z m -512.5105,55.58492 c -53.2054,16.93033 -107.3612,36.12496 -161.3372,56.52606 L 822.21115,692.61043 c 42.19504,-6.84041 82.20326,-11.439 119.88416,-13.89602 z M 891.69216,548.93763 C 556.10046,686.97908 256,855.59625 256,855.59625 434.27464,788.78667 595.2802,738.84174 735.77204,708.86234 Z" style="fill:#787dab;stroke-width:.75000006"/></svg>