<svg xmlns="http://www.w3.org/2000/svg" xmlns:svg="http://www.w3.org/2000/svg" id="svg2" width="128" height="128" version="1.1" viewBox="0 0 128 128"><defs id="defs4"><radialGradient id="b" cx="59.908" cy="69.553" r="41.303" gradientTransform="matrix(0.9852,0,0,0.9793,0.9069,1.3144)" gradientUnits="userSpaceOnUse"><stop style="stop-color:#d1d3d4" id="stop20-3" offset="0"/><stop style="stop-color:#414042" id="stop22-6" offset="1"/></radialGradient><radialGradient id="r-3" cx="65.819" cy="61.957" r="47.394" gradientUnits="userSpaceOnUse"><stop style="stop-color:#f15a29" id="stop27-1" offset="0"/><stop style="stop-color:#b11116" id="stop29-3" offset="1"/></radialGradient><radialGradient id="b-3" cx="59.908" cy="69.553" r="41.303" gradientTransform="matrix(0.9852,0,0,0.9793,0.9069,1.3144)" gradientUnits="userSpaceOnUse"><stop style="stop-color:#d1d3d4" id="stop20-3-4" offset="0"/><stop style="stop-color:#414042" id="stop22-6-5" offset="1"/></radialGradient><radialGradient id="r-3-0" cx="65.819" cy="61.957" r="47.394" gradientUnits="userSpaceOnUse"><stop style="stop-color:#f15a29" id="stop27-1-2" offset="0"/><stop style="stop-color:#b11116" id="stop29-3-9" offset="1"/></radialGradient><radialGradient id="b-3-6" cx="59.908" cy="69.553" r="41.303" gradientTransform="matrix(0.9852,0,0,0.9793,0.9069,1.3144)" gradientUnits="userSpaceOnUse"><stop style="stop-color:#d1d3d4" id="stop20-3-4-8" offset="0"/><stop style="stop-color:#414042" id="stop22-6-5-5" offset="1"/></radialGradient></defs><metadata id="metadata7"/><g id="layer1" transform="translate(0,-924.36216)" style="display:inline"><circle id="circle24-5" cx="64" cy="988.362" r="42.5" style="display:inline;opacity:1;fill:#5c5c5c;fill-opacity:1;stroke:none"/><circle style="fill:#666;fill-opacity:1;stroke:none;stroke-width:2;stroke-linecap:butt;stroke-linejoin:miter;stroke-miterlimit:4;stroke-dasharray:none;stroke-opacity:1" id="path4259" cx="61" cy="991.362" r="38"/></g><g id="layer5"><path style="display:inline;fill:#000;fill-opacity:.0627451;stroke:none" id="path31-8-1-0-8" d="M 66.060547 21.603516 C 65.411812 22.107275 64.758227 22.579455 64.087891 22.978516 C 59.656698 25.616466 54.716794 26.182009 48.982422 28.310547 C 39.818517 32.070624 32.04674 37.499203 27.039062 44.849609 C 23.737982 51.053711 22.007821 57.972344 22 65 C 22 70.540863 23.060153 75.831404 24.96875 80.695312 A 42.5 42.5 0 0 0 64 106.5 A 42.5 42.5 0 0 0 106.5 64 A 42.5 42.5 0 0 0 105.86133 56.691406 C 102.48386 60.693157 100.15964 64.521054 98.041016 67.757812 C 95.67602 71.305301 91.949977 77.50275 85.5 81.802734 C 77.00753 87.392715 66.256481 88.790384 65.396484 86.962891 C 64.751487 85.457896 69.481411 81.801558 70.878906 80.726562 C 74.211394 78.146571 76.576181 77.395542 79.263672 75.998047 C 85.176151 72.880558 88.615787 68.472414 90.550781 66.107422 C 96.553423 57.936728 99.330984 49.845632 100.36719 42.091797 A 42.5 42.5 0 0 0 87.041016 28.337891 C 81.539914 32.755311 75.071402 36.421636 69.839844 40.251953 C 63.238937 45.105714 52.24511 55.410977 50.1875 53.978516 C 48.109384 52.380935 52.232246 45.846714 56.113281 41.576172 C 59.77664 37.811531 64.288186 35.649719 67.957031 33.068359 C 71.82001 29.90178 74.208088 26.495145 75.642578 23.164062 A 42.5 42.5 0 0 0 66.060547 21.603516 z"/></g><g id="layer4" style="display:inline"><path style="display:inline;fill:#ba141a;fill-opacity:1;stroke:none" id="path31-8-1-0" d="m 74.353516,10.353513 c -3.984318,5.226891 -7.401556,9.324665 -11.265625,11.625 -4.431193,2.63795 -9.371097,3.203493 -15.105469,5.332031 C 38.818517,31.070621 31.046739,36.4992 26.039062,43.849606 22.737982,50.053708 21.007821,56.972341 21,63.999997 20.999998,87.748242 40.251755,107 64,107 c 18.781596,-0.004 35.387797,-12.196645 41.01562,-30.115237 0.80732,-3.355752 1.7102,-6.753866 2.20899,-9.931641 0.94563,-5.936399 3.75669,-10.45958 10.04412,-15.54385 1.00661,-0.82184 0.89806,-1.339445 -0.13966,-1.275392 -4.89423,0.302096 -8.61144,1.552573 -10.88206,3.97059 -4.15373,4.57228 -6.808583,8.990651 -9.205994,12.653339 C 94.67602,70.305298 90.949977,76.502747 84.5,80.802731 c -8.49247,5.589981 -19.243519,6.98765 -20.103516,5.160157 -0.644997,-1.504995 4.084927,-5.161333 5.482422,-6.236329 3.332488,-2.579991 5.697275,-3.33102 8.384766,-4.728515 5.912479,-3.117489 9.352115,-7.525633 11.287109,-9.890625 C 104.06785,45.347031 99.74955,26.047129 97.449219,10.87695 97.339035,10.232114 96.635841,10.212031 96.371094,10.753903 94.789466,14.426363 90.864945,23.145678 86.919922,26.636716 81.242991,31.376146 74.348967,35.218413 68.839844,39.25195 62.238937,44.105711 51.24511,54.410974 49.1875,52.978513 c -2.078116,-1.597581 2.044746,-8.131802 5.925781,-12.402344 3.663359,-3.764641 8.174905,-5.926453 11.84375,-8.507813 8.742992,-7.166847 9.945108,-15.5629 9.585938,-21.53125 -0.187502,-2.2367822 -1.259057,-1.3780759 -2.189453,-0.183593 z"/></g><g id="layer3" style="display:inline"><path id="path33-2" d="M 42.487327,99.33515 C 27.974879,88.477686 32.972314,73.697026 33.937313,64.227032 36.462131,40.34722 45.364075,33.763607 56.438288,26.713258 c -6.385116,7.361791 -8.094143,10.639716 -8.917614,14.079049 -4.45385,22.521776 18.640043,50.974042 15.124432,61.154313 -1.79499,5.15249 -14.890297,1.15101 -20.157779,-2.61147 z" style="display:inline;fill:#cd2724;fill-opacity:1;stroke:none"/><path id="path35-2" d="M 31.302,41.589128 C 40.271917,57.32073 40.124823,76.812969 39.888432,85.776944 23.746436,81.515862 23.078906,76.568288 25.04269,69.34007 28.407293,58.444579 32.663774,56.28783 31.302,41.589128 Z" style="display:inline;fill:#cd2724;fill-opacity:1;stroke:none"/><path style="display:inline;fill:#cd2724;fill-opacity:1;stroke:none" id="path37-3-7" d="m 72.947266,44.251953 c -8.028126,6.896428 -13.96863,18.557637 -14.371094,33.003906 0.51935,9.50073 5.435483,23.630441 12.054687,26.228521 6.879975,2.14999 17.930786,-5.483852 19.113282,-11.611333 1.104188,-4.664259 0.16716,-4.335053 -4.556641,-11.548828 -0.228306,0.160081 -0.452677,0.321967 -0.6875,0.478515 -8.49247,5.589981 -19.243519,6.98765 -20.103516,5.160157 -0.644997,-1.504995 4.084927,-5.161333 5.482422,-6.236329 3.332488,-2.579991 5.697275,-3.33102 8.384766,-4.728515 0.948295,-0.50001 1.811639,-1.039113 2.636719,-1.591797 -5.794113,-9.20774 -13.61976,-18.284459 -7.953125,-29.154297 z"/></g><g id="layer2" style="display:inline"><path style="fill:#000;fill-opacity:.03137255;stroke:none;stroke-width:1;stroke-linecap:round;stroke-linejoin:miter;stroke-miterlimit:4;stroke-dasharray:none;stroke-opacity:1" id="path4163" d="M 31.86523,36.958984 A 42,42 0 0 0 22,64 42,42 0 0 0 64,106 42,42 0 0 0 105.86133,66.783203 40,40 0 0 1 68,94 40,40 0 0 1 28,54 40,40 0 0 1 31.86523,36.958984 Z"/></g></svg>