<svg xmlns="http://www.w3.org/2000/svg" xmlns:svg="http://www.w3.org/2000/svg" id="svg4295" width="128" height="128" version="1.1" viewBox="0 0 128 128"><defs id="defs4297"><filter style="color-interpolation-filters:sRGB" id="filter4227"><feFlood id="feFlood4229" flood-color="#000" flood-opacity=".251" result="flood"/><feComposite id="feComposite4231" in="flood" in2="SourceGraphic" operator="in" result="composite1"/><feGaussianBlur id="feGaussianBlur4233" in="composite1" result="blur" stdDeviation="2"/><feOffset id="feOffset4235" dx="1" dy="2" result="offset"/><feComposite id="feComposite4237" in="SourceGraphic" in2="offset" operator="over" result="composite2"/></filter><filter style="color-interpolation-filters:sRGB" id="filter4239"><feFlood id="feFlood4241" flood-color="#000" flood-opacity=".251" result="flood"/><feComposite id="feComposite4243" in="flood" in2="SourceGraphic" operator="in" result="composite1"/><feGaussianBlur id="feGaussianBlur4245" in="composite1" result="blur" stdDeviation="2"/><feOffset id="feOffset4247" dx="1" dy="2" result="offset"/><feComposite id="feComposite4249" in="SourceGraphic" in2="offset" operator="over" result="composite2"/></filter></defs><metadata id="metadata4300"/><g id="layer5"><path id="path21" d="M 108.04102,72.746862 A 45.266033,42.940104 11.422728 0 1 55.167461,105.87167 45.266033,42.940104 11.422728 0 1 19.302151,54.817332 45.266033,42.940104 11.422728 0 1 72.175711,21.692522 45.266033,42.940104 11.422728 0 1 108.04102,72.746862 Z" style="fill:#5df;stroke:none;stroke-width:.125242;stroke-opacity:1"/><path style="fill:#000;fill-opacity:1;stroke:#000;stroke-width:.160926px;stroke-linecap:butt;stroke-linejoin:miter;stroke-opacity:1" id="path8217" d="m 39.944011,32.199922 2.24394,15.13265 5.20649,-9.12876 5.86611,4.41675 6.91124,16.23574 9.98868,3.48847 1.39963,40.461758 5.13587,-21.179358 6.30312,11.69277 0.4669,-25.15047 12.60623,7.05978 -31.81136,-40.10313 c -0.27111,-0.28671 -14.44371,-4.66277 -14.91826,-4.86457 z"/></g></svg>