<svg xmlns="http://www.w3.org/2000/svg" xmlns:svg="http://www.w3.org/2000/svg" id="svg2" width="128" height="128" version="1.1" viewBox="0 0 128 128"><metadata id="metadata7"/><g id="layer1" transform="translate(0,-924.36216)"><g id="g3955" transform="matrix(0.98101487,0,0,0.98101487,-117.89018,24.11334)"><circle style="display:inline;fill:#48b9c7;stroke-width:.37512174;enable-background:new" id="circle989" cx="185.41" cy="982.909" r="46.89"/><g id="g1003" transform="matrix(0.09913365,0,0,0.09913365,138.51997,935.92004)" style="display:inline;stroke-width:3.78399992;enable-background:new"><rect id="rect991" width="488.767" height="78.833" x="236.5" y="710.5" rx="39.417" ry="39.417" style="fill:#fff;stroke-width:3.78399992"/><g id="g1001"><path id="path993" d="m 536,357 c -24,51 -64,92 -120,112 l 48,125 c 9,23 17,47 10,69 -7,22 -39,29 -62,5 -44,-47 -192,-343 -203,-365 -11,-22 -23,-40 -23,-62 1,-33 52,-67 77,-84 25,-17 74,-40 117,-41 43,-1 61,9 86,25 38,25 65,64 75,109 10,45 7,80 -5,105 M 423,301 c -9,-31 -28,-61 -53,-81 -5,-4 -11,-9 -18,-11 -46,-15 -26,62 -19,82 7,20 26,62 47,83 5,5 10,9 16,10 6,1 18,-5 23,-13 5,-8 6,-14 6,-22 a 128,128 0 0 0 -2,-48 z" style="fill:#fff;stroke-width:14.31865597"/><g id="g999"><path id="path995" d="m 625,664 c -2,9 -7,17 -15,22 -8,5 -27,5 -38,-4 -11,-9 -13,-24 -10,-36 3,-12 13,-25 27,-29 29,-9 42,23 36,47 z" style="fill:#fff;stroke-width:3.78399992"/><path id="path997" d="m 607,573 c -18,-7 -12,-103 5,-220 5,-32 13,-48 22,-56 9,-8 36,-12 52,-9 a 90,90 0 0 1 49,24 c 12,11 13,23 9,38 -4,15 -18,47 -29,70 l -28,53 c -54,96 -65,106 -80,100 z" style="fill:#fff;stroke-width:3.78399992"/></g></g></g></g></g></svg>