<svg xmlns="http://www.w3.org/2000/svg" xmlns:svg="http://www.w3.org/2000/svg" id="svg2" width="128" height="128" version="1.1" viewBox="0 0 128 128"><metadata id="metadata7"/><g id="layer5" style="display:none"><path style="display:inline;fill:#333;fill-opacity:1;stroke:none;stroke-width:0;stroke-miterlimit:4;stroke-dasharray:none;stroke-opacity:1" id="path4160-0" d="m 54.208986,19.08207 a 46,46 0 0 0 -36.208989,44.91797 46,46 0 0 0 46.000005,46 A 46,46 0 0 0 110,64.00004 46,46 0 0 0 73.783205,19.10941 l -6.332031,29.79297 a 15.5,15.5 0 0 1 12.048828,15.09766 15.5,15.5 0 0 1 -15.5,15.5 15.5,15.5 0 0 1 -15.5,-15.5 15.5,15.5 0 0 1 12.046875,-15.0918 L 54.208986,19.08207 Z"/></g><g id="layer3" transform="translate(0,-924.36216)" style="display:inline"><path style="fill:#bebec3;fill-opacity:1;stroke:none;stroke-width:0;stroke-miterlimit:4;stroke-dasharray:none;stroke-opacity:1" id="path4160" d="M 54.208984 19.082031 A 46 46 0 0 0 18 64 A 46 46 0 0 0 33.091797 98 L 94.904297 98 A 46 46 0 0 0 110 64 A 46 46 0 0 0 73.783203 19.109375 L 67.451172 48.902344 A 15.5 15.5 0 0 1 79.5 64 A 15.5 15.5 0 0 1 64 79.5 A 15.5 15.5 0 0 1 48.5 64 A 15.5 15.5 0 0 1 60.546875 48.908203 L 54.208984 19.082031 z" transform="translate(0,924.36216)"/></g><g id="layer4" transform="translate(0,-372)" style="display:inline"><path style="display:inline;fill:#c8c8cd;fill-opacity:1;stroke:none;stroke-width:0;stroke-miterlimit:4;stroke-dasharray:none;stroke-opacity:1" id="rect4190" d="m 64.008789,435.49023 -32.769531,32.77151 a 46,46 0 0 0 32.769531,13.7383 46,46 0 0 0 32.751953,-13.7559 L 64.008789,435.49023 Z"/></g></svg>