<svg xmlns="http://www.w3.org/2000/svg" xmlns:svg="http://www.w3.org/2000/svg" id="svg2" width="128" height="128" version="1.1" viewBox="0 0 128 128"><metadata id="metadata7"/><g id="layer1" transform="translate(0,-924.36216)" style="display:inline"><path style="display:inline;fill:#f1f2f2;stroke:#333;stroke-width:2;stroke-miterlimit:10;stroke-opacity:1" id="path8-4" stroke-miterlimit="10" d="m 101.7,967.86217 c 1.3,-1.8 2,-3.4 2,-3.4 1.9,-4.8 0.8,-9.3 0.2,-11.4 -0.6,-2.3 -1.2,-3.2 -1.6,-3.7 -1.3,-1.6 -3.1,-2.3 -4.7,-2.8 -4.6,-1.4 -8.8,-1.2 -12.6,-0.9 -6.3,0.4 -9.5,0.6 -10.8,0.7 -0.5,0.1 -1,0.1 -1.5,0.2 -2.8,-0.6 -5.8,-0.9 -8.8,-0.9 -6.8,0 -13.3,1.6 -19,4.4 -2,-0.4 -3.5,-0.8 -6.5,-0.7 -3.2,0.1 -7.9,0.3 -11.9,3.7 -2.9,2.4 -4,5.3 -4.2,5.8 -1.2,3 -0.7,5.1 -0.2,11 0.3,4.1 0.3,6.3 0.3,7.7 -0.9,3.5 -1.4,7.2 -1.4,11 0,23.60003 19.3,42.80003 43,42.80003 23.7,0 43,-19.2 43,-42.90003 0,-7.5 -1.9,-14.5 -5.3,-20.6 z"/></g><g id="layer2" style="display:inline"><circle id="circle24-0" cx="44.4" cy="66.4" r="14" style="display:inline;fill:#333;fill-opacity:1;stroke:none"/><circle id="circle34-4" cx="88.6" cy="54.5" r="7.5" style="display:inline;fill:#333;fill-opacity:1;stroke:none"/><path id="path26" d="m 83.1,69 -6.7,10.8 c -0.5,0.8 -1.6,1.1 -2.5,0.7 l -11.2,-6 c -1.5,-0.8 -1.2,-3 0.4,-3.5 L 81,66.2 c 1.7,-0.4 3,1.4 2.1,2.8 z" style="display:inline;fill:#333;fill-opacity:1;stroke:none"/><path id="path28" d="m 67.9,89.1 c -4.1,1.1 -8.3,-1 -9.9,-4.8 -0.3,-0.7 -1,-1 -1.7,-0.8 l 0,0 c -0.8,0.2 -1.3,1.1 -0.9,1.9 2.2,5 7.8,7.8 13.2,6.4 5.4,-1.5 8.9,-6.7 8.2,-12.1 -0.1,-0.9 -0.9,-1.4 -1.8,-1.2 l 0,0 c -0.7,0.2 -1.1,0.8 -1,1.6 0.5,4 -2,7.9 -6.1,9 z" style="display:inline;fill:#333;fill-opacity:1;stroke:none"/><path id="path30" d="m 85.9,84.3 c -4.1,1.1 -8.3,-1 -9.9,-4.8 -0.3,-0.7 -1,-1 -1.7,-0.8 l 0,0 c -0.8,0.2 -1.3,1.1 -0.9,1.9 2.2,5 7.8,7.8 13.2,6.4 C 92,85.5 95.5,80.3 94.8,74.9 94.7,74 93.9,73.5 93,73.7 l 0,0 c -0.7,0.2 -1.1,0.8 -1,1.6 0.6,4 -2,7.9 -6.1,9 z" style="display:inline;fill:#333;fill-opacity:1;stroke:none"/><path id="path26-9" d="m 83.1,69 -6.7,10.8 c -0.5,0.8 -1.6,1.1 -2.5,0.7 l -11.2,-6 c -1.5,-0.8 -1.2,-3 0.4,-3.5 L 81,66.2 c 1.7,-0.4 3,1.4 2.1,2.8 z" style="display:inline;fill:#333;fill-opacity:1;stroke:none"/><path id="path28-5" d="m 67.9,89.1 c -4.1,1.1 -8.3,-1 -9.9,-4.8 -0.3,-0.7 -1,-1 -1.7,-0.8 l 0,0 c -0.8,0.2 -1.3,1.1 -0.9,1.9 2.2,5 7.8,7.8 13.2,6.4 5.4,-1.5 8.9,-6.7 8.2,-12.1 -0.1,-0.9 -0.9,-1.4 -1.8,-1.2 l 0,0 c -0.7,0.2 -1.1,0.8 -1,1.6 0.5,4 -2,7.9 -6.1,9 z" style="display:inline;fill:#333;fill-opacity:1;stroke:none"/><path id="path30-8" d="m 85.9,84.3 c -4.1,1.1 -8.3,-1 -9.9,-4.8 -0.3,-0.7 -1,-1 -1.7,-0.8 l 0,0 c -0.8,0.2 -1.3,1.1 -0.9,1.9 2.2,5 7.8,7.8 13.2,6.4 C 92,85.5 95.5,80.3 94.8,74.9 94.7,74 93.9,73.5 93,73.7 l 0,0 c -0.7,0.2 -1.1,0.8 -1,1.6 0.6,4 -2,7.9 -6.1,9 z" style="display:inline;fill:#333;fill-opacity:1;stroke:none"/><path style="display:inline;fill:#1a1a1a;fill-opacity:1;stroke:none" id="path14" d="m 44.6,26.5 c 3.9,2.4 6.7,5.6 8.9,9.6 1.3,2.3 2.4,5.8 1,8.2 -1,1.7 -3.2,2.5 -5.1,2.2 -1.6,-0.3 -3.1,-1.3 -4.7,-1.8 -2.2,-0.6 -4.4,-0.7 -6.6,-0.6 -3.5,0.2 -6.5,0.7 -9.4,2.8 -1,0.8 0,2.5 1,1.7 4.1,-3.1 10.5,-3.3 15.2,-1.8 1.7,0.6 3.2,1.6 5,1.7 1.6,0 3.2,-0.4 4.5,-1.3 C 58.3,44.5 57.2,39 55.3,35.4 53,31 49.7,27.3 45.5,24.7 c -1,-0.6 -2,1.1 -0.9,1.8 l 0,0 z"/><path style="display:inline;fill:#1a1a1a;fill-opacity:1;stroke:none" id="path20" d="M 100.7,43.3 C 98.4,45 95.4,46 93.8,43 93.1,41.8 92.7,40.3 92.1,39.1 90.1,35.2 87.1,31.9 84,29 c -0.9,-0.9 -2.4,0.5 -1.4,1.4 4,3.7 6.9,7.6 9.1,12.6 0.7,1.7 1.8,3.5 3.7,3.9 2.1,0.5 4.7,-0.8 6.4,-2 0.9,-0.7 -0.1,-2.4 -1.1,-1.6 l 0,0 z"/><path style="display:inline;fill:#333;fill-opacity:1;stroke:none" id="path14-9" d="m 44.6,26.5 c 3.9,2.4 6.7,5.6 8.9,9.6 1.3,2.3 2.4,5.8 1,8.2 -1,1.7 -3.2,2.5 -5.1,2.2 -1.6,-0.3 -3.1,-1.3 -4.7,-1.8 -2.2,-0.6 -4.4,-0.7 -6.6,-0.6 -3.5,0.2 -6.5,0.7 -9.4,2.8 -1,0.8 0,2.5 1,1.7 4.1,-3.1 10.5,-3.3 15.2,-1.8 1.7,0.6 3.2,1.6 5,1.7 1.6,0 3.2,-0.4 4.5,-1.3 C 58.3,44.5 57.2,39 55.3,35.4 53,31 49.7,27.3 45.5,24.7 c -1,-0.6 -2,1.1 -0.9,1.8 l 0,0 z"/><path style="display:inline;fill:#333;fill-opacity:1;stroke:none" id="path20-0" d="M 100.7,43.3 C 98.4,45 95.4,46 93.8,43 93.1,41.8 92.7,40.3 92.1,39.1 90.1,35.2 87.1,31.9 84,29 c -0.9,-0.9 -2.4,0.5 -1.4,1.4 4,3.7 6.9,7.6 9.1,12.6 0.7,1.7 1.8,3.5 3.7,3.9 2.1,0.5 4.7,-0.8 6.4,-2 0.9,-0.7 -0.1,-2.4 -1.1,-1.6 l 0,0 z"/></g><g id="layer3" style="display:inline"><circle id="circle32-0" cx="47.1" cy="65.6" r="7.5" style="display:inline;fill:#f1f2f2"/></g></svg>