<svg xmlns="http://www.w3.org/2000/svg" xmlns:svg="http://www.w3.org/2000/svg" id="svg2" width="128" height="128" version="1.1" viewBox="0 0 128 128"><metadata id="metadata7"/><g id="layer1" style="display:inline"><circle style="display:inline;fill:#2c55a2;fill-opacity:1;stroke:none;stroke-width:0;stroke-linecap:round;stroke-linejoin:round;stroke-miterlimit:4;stroke-dasharray:none;stroke-opacity:1" id="path4138" cx="58.178" cy="69.334" r="46" transform="matrix(0.9961947,-0.08715574,0.08715574,0.9961947,0,0)"/><path style="fill:#f2f2f2;fill-opacity:1;stroke:none;stroke-width:0;stroke-linecap:round;stroke-linejoin:round;stroke-miterlimit:4;stroke-dasharray:none;stroke-opacity:1" id="path4136-1" d="M 60.339456,22.159783 A 42,42 0 0 0 22.159819,67.660501 42,42 0 0 0 67.660546,105.84022 42,42 0 0 0 105.84017,60.339419 42,42 0 0 0 60.339455,22.159783 Z m 0.348623,3.984779 A 38,38 0 0 1 101.8554,60.688042 38,38 0 0 1 67.311922,101.85544 38,38 0 0 1 26.144598,67.311878 38,38 0 0 1 60.688078,26.144562 Z"/><path style="fill:#f2f2f2;fill-opacity:1;stroke:none;stroke-width:0;stroke-linecap:round;stroke-linejoin:round;stroke-miterlimit:4;stroke-dasharray:none;stroke-opacity:1" id="path4166" d="M 59.181145,43.341379 A 24,24 0 0 0 37.36421,69.341789 24,24 0 0 0 63.364621,91.158724 24,24 0 0 0 85.181556,65.158313 24,24 0 0 0 85.133722,64.768421 c 0.0016,-0.02786 0.009,-0.05393 0.0065,-0.08291 L 83.131183,41.722445 c -0.02294,-0.262246 -0.214305,-0.457673 -0.428558,-0.438928 l -23.134287,2.023988 c -0.0233,0.002 -0.04306,0.01463 -0.06479,0.02136 a 24,24 0 0 0 -0.322402,0.01252 z m 0.741653,3.950393 19.137835,-1.674344 c 0.217539,-0.01903 0.408856,0.146516 0.428606,0.372264 L 81.1612,65.100287 c 0.0022,0.02506 -0.0055,0.04709 -0.0075,0.07123 a 19.950512,20 85 0 1 0.04732,0.384056 A 19.950512,20 85 0 1 63.015998,87.173943 19.950512,20 85 0 1 41.353245,69.041806 19.950512,20 85 0 1 59.53845,47.425385 a 19.950512,20 85 0 1 0.13282,-0.0057 c 0.06377,-0.07048 0.150677,-0.119055 0.251531,-0.127878 z"/><path style="fill:none;fill-opacity:1;fill-rule:evenodd;stroke:#f2f2f2;stroke-width:4;stroke-linecap:butt;stroke-linejoin:miter;stroke-miterlimit:4;stroke-dasharray:none;stroke-opacity:1" id="path4186" d="M 81.179355,43.932659 C 72.812469,66.971366 69.418254,74.485797 48.002191,84.860703"/></g></svg>