<svg xmlns="http://www.w3.org/2000/svg" xmlns:svg="http://www.w3.org/2000/svg" id="svg2" width="128" height="128" version="1.1" viewBox="0 0 128 128"><metadata id="metadata7"/><g id="layer3"><path style="color:#000;clip-rule:nonzero;display:inline;overflow:visible;visibility:visible;opacity:1;isolation:auto;mix-blend-mode:normal;color-interpolation:sRGB;color-interpolation-filters:linearRGB;solid-color:#000;solid-opacity:1;fill:#333;fill-opacity:1;fill-rule:nonzero;stroke:none;stroke-width:1;stroke-linecap:butt;stroke-linejoin:miter;stroke-miterlimit:4;stroke-dasharray:none;stroke-dashoffset:0;stroke-opacity:1;color-rendering:auto;image-rendering:auto;shape-rendering:auto;text-rendering:auto;enable-background:accumulate" id="path4686-7" d="M 64 18 A 46 46 0 0 0 18 64 A 46 46 0 0 0 20.931641 80 L 23.015625 80 A 44 44 0 0 0 64 108 A 44 44 0 0 0 99.435547 90 L 101.94336 90 A 46 46 0 0 0 110 64 A 46 46 0 0 0 64 18 z"/></g><g id="layer2" style="display:inline"><path style="fill:#f2f2f2;stroke:none" id="path20-3-5" d="m 40.71875,67.1875 c -0.651426,0.01436 -1.546115,0.154442 -2.3125,0.84375 -1.226213,1.021198 -1.21875,2.75614 -1.21875,3.0625 0,0.919076 0.293144,1.532933 0.90625,2.65625 0.613107,1.225436 1.242535,2.447553 2.46875,3.46875 1.532766,1.327556 2.852186,1.637283 2.75,2.25 -0.102183,0.510599 -0.926577,0.710381 -1.4375,0.8125 -1.328397,0.306359 -2.45188,0.0084 -2.65625,-0.09375 -1.124029,-0.408479 -1.824391,-1.253912 -2.4375,-1.96875 -1.021843,-1.225436 -0.932524,-1.708152 -1.75,-2.21875 -0.91966,-0.612719 -2.028763,-0.63337 -2.4375,-0.53125 -0.919662,0.10212 -1.123482,0.503913 -2.65625,1.21875 -0.91966,0.408479 -1.952851,0.92076 -3.28125,1.125 -1.226213,0.204239 -1.53568,-0.09375 -3.375,-0.09375 0,0 -1.286481,0.03389 -3.125,0.21875 C 26.0596,96.530081 43.452801,110 64,110 c 16.405466,0 30.794227,-8.60562 38.9375,-21.53125 -0.15957,-0.122945 -0.33176,-0.252479 -0.46875,-0.34375 -0.91967,-0.510599 -3.245449,-0.50837 -7.84375,-0.40625 -3.167718,0 -5.136894,0.212064 -5.75,1.4375 -0.408739,0.714838 0.104673,1.222663 -0.40625,1.9375 -0.715291,1.225436 -2.433495,0.728803 -4.375,1.75 -0.306554,0.10212 -0.51438,0.30413 -0.71875,0.40625 -1.226213,0.919077 -1.943447,1.818641 -2.25,2.125 -1.532766,2.042393 -4.818446,3.587609 -5.125,3.28125 -0.204367,-0.204239 1.047572,-1.340431 3.5,-4.8125 0.613106,-0.816957 1.51784,-2.116085 2.4375,-3.75 0.817476,-1.327556 1.233133,-1.958151 1.4375,-2.46875 1.12403,-2.450871 0.509404,-3.071463 1.53125,-7.15625 0.306553,-1.225436 0.619053,-2.327011 0.3125,-2.53125 -0.306553,-0.20424 -0.711287,0.404021 -1.9375,0.8125 -0.20437,0.10212 -0.836287,0.21038 -2.0625,0.3125 -1.021846,0.10212 -1.32688,0.204239 -1.53125,0 -0.204367,-0.10212 -0.310013,-0.318641 -0.71875,-0.625 -0.102186,-0.10212 -0.287197,-0.210381 -0.59375,-0.3125 -0.510923,-0.10212 -1.552548,-0.291848 -3.1875,0.21875 -1.124027,0.306359 -1.230644,0.59375 -1.84375,0.59375 -0.613107,0 -0.588774,-0.287391 -1.40625,-0.59375 -1.226213,-0.408478 -2.364077,-0.22712 -2.875,-0.125 -0.919659,0.204239 -0.719721,0.31864 -1.84375,0.625 -0.817474,0.204239 -1.123481,0.21038 -2.65625,0.3125 -1.226213,0.102119 -1.435013,0.21038 -1.84375,0.3125 l -0.59375,0 c -1.226215,0.10212 -3.0625,-0.625 -3.0625,-0.625 -1.124029,-0.408479 -1.838774,-0.926901 -2.65625,-1.4375 C 55.282221,76.691412 54.760922,76.385598 54.25,75.875 c -0.613107,-0.714839 -0.526274,-1.010053 -1.34375,-2.03125 -0.71529,-1.021196 -1.114077,-1.545761 -1.625,-1.75 -1.532766,-0.612719 -2.853156,1.143968 -3.875,0.53125 -0.408739,-0.204239 -0.324394,-0.510054 -0.9375,-1.53125 -0.306556,-0.612719 -0.907221,-1.745543 -2.03125,-2.5625 -0.408737,-0.306359 -1.521298,-1.210381 -3.15625,-1.3125 -0.153277,0 -0.345358,-0.03604 -0.5625,-0.03125 z M 68.25,84.53125 c 0.9005,-0.04787 1.690472,0.378071 1.84375,0.53125 0.102184,0.20424 0.386894,0.72489 1,1.03125 0.20437,0.10212 0.824393,0.297988 1.4375,0.09375 1.021845,-0.30636 1.028763,-1.63337 1.4375,-1.53125 0.306554,-0.20424 0.602184,0.737172 0.5,1.65625 0,0 -0.196906,1.106031 -1.21875,1.71875 -0.817476,0.408479 -1.630947,0.3125 -1.9375,0.3125 -0.715292,-0.10212 -1.13938,-0.10212 -1.34375,0 -0.102184,0.204239 -0.510923,0 0,0 0.102186,-0.10212 0.11062,-0.193641 -0.09375,-0.5 -0.102185,-0.10212 -0.287197,-0.210381 -0.59375,-0.3125 C 68.463774,87.224891 67.3125,87.125 67.3125,87.125 c -0.613107,-0.30636 -0.90625,-0.833151 -0.90625,-1.34375 0.102184,-0.612717 0.70188,-0.89788 0.90625,-1 0.306553,-0.153179 0.637333,-0.234044 0.9375,-0.25 z" mask="none"/><path style="display:inline;fill:#ed1c24" id="path12-9" d="m 100.6,58.100003 c -0.9,-2 -2.4,-3 -4.7,-4.5 -2.1,-1.4 -4,-2.1 -5.9,-2.7 -0.3,0.7 -0.6,1.5 -1.1,2.3 -1.3,2 -3.1,3.6 -3.4,3.3 -0.3,-0.2 1.2,-1.9 1.8,-5.1 0.3,-1.9 0.1,-3.5 0,-4.6 -0.1,-0.7 -0.2,-1.3 -0.4,-1.9 -0.2,-0.4 -0.3,-0.8 -0.5,-1.3 -1.2,-2.7 -1.1,-2.3 -2.7,-5.8 -1.6,-3.6 -1.6,-4 -2.4,-5.1 -0.8,-1.2 -2,-3 -4.3,-4.2 -0.8,-0.4 -2.8,-1.5 -5.2,-1.3 -0.3,0 -1.3,0.3 -3.3,0.8 -2.5,0.6 -2.6,0.7 -3.3,0.8 -0.3,0 -0.6,0 -3.8,-0.3 -2.6,-0.2 -3,-0.3 -3.3,-0.4 -1.8,-0.4 -1.7,-0.8 -2.9,-0.9 -1.9,-0.2 -3.4,0.4 -4,0.6 -0.7,0.3 -2,0.8 -3.1,2.2 -0.7,0.8 -0.9,1.5 -1.4,2.8 -0.6,1.7 -0.6,2.4 -1.4,5.6 -0.4,1.8 -0.6,2.7 -0.8,3.3 0.2,0.9 0.5,1.7 0.5,1.7 0.3,0.8 0.6,1.7 1.3,2.6 0.3,0.4 0.8,0.9 2.6,1.8 0.5,0.2 1.9,1 5,1.9 2.2,0.7 3.2,1 4.2,1.2 0.3,0 2,0.3 3.8,0.6 0.3,0.1 0.7,0.2 1.3,0.4 0.1,0 1.1,0.5 1.9,1.3 1.2,1.2 0.8,2.1 1.8,4 1.1,2.1 2.4,2.4 2.2,2.9 -0.5,1.3 -9.6,-1.3 -11.2,-1.8 -0.6,-0.2 -3,-0.9 -6.1,-2.2 -0.8,-0.4 -2.5,-1 -4.3,-2.2 -1.1,-0.7 -1.8,-1.2 -2.4,-1.8 -0.6,-0.6 -1.4,-1.3 -1.8,-2.4 -0.5,-1.3 -0.3,-2.4 -0.3,-3.1 0.1,-0.4 0.1,-0.8 0.2,-1.3 -0.7,-0.1 -1.5,-0.2 -2.5,-0.3 -2,-0.1 -3.6,0.1 -4.6,0.3 -1.8,0.3 -2.7,0.4 -3.8,0.9 -1,0.5 -2.3,1.1 -3.1,2.6 -0.6,1.2 -0.5,2.3 -0.5,2.8 0.1,2 1.2,3.6 2.3,4.9 3,3.6 6.4,5.8 7.3,6.4 3.7,2.4 6.9,3.9 8.9,4.9 6.3,2.9 9.5,4.4 14.1,5.6 2.8,0.8 9.8,2.5 18.8,2.2 8.3,-0.3 12,-2.1 13.2,-2.7 2,-1 5.1,-2.6 6.9,-6.1 -0.1,-1 2.1,-5 0.4,-8.7 z m -37.9,-18.5 c -0.1,0.1 -0.2,0 -0.8,0.2 0,0 -0.7,0.2 -0.9,0.2 -0.1,0 -0.2,0 -0.2,0 -0.1,0 -0.2,0 -0.6,0 -0.5,0 -0.8,0.1 -2.1,0 -0.6,0 -0.8,-0.1 -1.2,0 -0.5,0.1 -0.8,0.3 -1.5,0.7 -1.2,0.7 -1.8,1 -2.1,1 -0.7,0 -1.3,-0.4 -1.5,-0.5 -0.3,-0.2 -0.5,-0.3 -0.7,-0.5 -0.5,-0.4 -0.9,-0.9 -1.1,-1.2 -0.4,-0.4 -0.9,-1 -1.1,-1.9 -0.1,-0.4 -0.1,-1.3 -0.1,-1.7 -0.1,0 -0.1,0 -0.1,0 0,0 0,0 0,0 0,0 0,0 0.1,-0.1 0,-0.1 0,0 0,0 0.2,-0.1 0.7,-0.3 1.2,-0.5 1,-0.2 1.2,-0.3 1.2,-0.2 -0.1,0.2 1,0.8 1.4,1 0.7,0.4 0.7,0.5 1.1,0.7 0.4,0.2 0.8,0.2 1.2,0.3 0.9,0.1 1.5,0 2.7,-0.1 1.8,-0.1 2.6,-0.2 2.8,-0.2 0.2,0 0.5,0 0.7,0 0.5,0 0.7,0 0.8,0 0.1,0 0.5,0.1 0.9,0.4 0.5,0.5 0.4,1.2 0.3,1.3 -0.1,0.8 -0.3,1 -0.4,1.1 z m 13.9,-6.1 c -0.4,0.5 -0.9,0.6 -1.5,0.8 -0.4,0.1 -0.6,0.1 -1.9,0.2 -1.5,0.1 -1.6,0.1 -2.1,0.1 -0.1,0 -1.5,-0.1 -1.5,-0.3 0,-0.3 2.5,-0.3 2.8,-1.4 0.1,-0.4 -0.1,-0.9 -0.3,-1.2 -0.2,-0.3 -0.6,-0.4 -0.9,-0.5 -1.6,-0.5 -4.5,0.4 -4.6,0.3 -0.1,-0.1 2.6,-1.4 4.9,-1.7 0.3,0 0.8,-0.1 1.4,-0.1 0.5,0 1.2,0 2,0.3 0.5,0.2 0.9,0.3 1.4,0.8 0,0 0.1,0.1 0.7,0.8 0.1,0.2 0.2,0.5 0.2,1 -0.2,0 -0.2,0.5 -0.6,0.9 z"/></g></svg>