<svg xmlns="http://www.w3.org/2000/svg" xmlns:svg="http://www.w3.org/2000/svg" id="svg2" width="128" height="128" version="1.1" viewBox="0 0 128 128"><metadata id="metadata7"/><g id="layer1" transform="translate(0,-924.36216)" style="display:inline"><path style="fill:#006bc6;fill-opacity:1;stroke:none;stroke-width:1;stroke-linecap:round;stroke-linejoin:miter;stroke-miterlimit:4;stroke-dasharray:none;stroke-opacity:1" id="path4136" d="M 64.800781 18.960938 A 34 34 0 0 0 34.556641 35.949219 A 34 34 0 0 0 47 82.394531 A 34 34 0 0 0 76.478516 84.5625 L 89.169922 106.54492 C 90.554922 108.94381 93.60111 109.76 96 108.375 C 98.39889 106.99 99.215078 103.94381 97.830078 101.54492 L 85.132812 79.552734 A 34 34 0 0 0 93.255859 70.238281 A 4 4 0 0 0 93.443359 69.949219 A 4 4 0 0 0 91.980469 64.486328 A 4 4 0 0 0 86.517578 65.949219 A 26 26 0 0 1 51 75.466797 A 26 26 0 0 1 41.482422 39.949219 A 26 26 0 0 1 77 30.433594 A 26 26 0 0 1 89.099609 46.224609 L 84.59375 47.431641 L 90.716797 53.554688 L 96.841797 59.679688 L 99.082031 51.314453 L 101.32422 42.949219 L 96.822266 44.154297 A 34 34 0 0 0 81 23.505859 A 34 34 0 0 0 64.800781 18.960938 z" transform="translate(0,924.36216)"/></g></svg>