<svg xmlns="http://www.w3.org/2000/svg" xmlns:svg="http://www.w3.org/2000/svg" id="svg2" width="128" height="128" version="1.1" viewBox="0 0 128 128"><metadata id="metadata7"/><g id="layer1" transform="translate(0,-924.36216)"><circle style="display:inline;fill:#0af;fill-opacity:1;fill-rule:nonzero;stroke:none" id="path3813-1" cx="64" cy="-988.362" r="46" transform="scale(1,-1)"/></g><g id="layer2" style="display:inline"><circle style="fill:#33333d;fill-opacity:1;fill-rule:nonzero;stroke:none" id="path3862" cx="64" cy="-64" r="42" transform="scale(1,-1)"/><path style="display:inline;fill:#2d2d35;fill-opacity:1;fill-rule:nonzero;stroke:none" id="path3862-8" d="m 64.000002,106 a 42,42 0 0 1 -42,-42.000003 l 83.999998,0 A 42,42 0 0 1 64.000002,106 Z"/></g><g id="layer3" style="display:inline"><path style="display:inline;fill:#f2f2f2;stroke:none" id="path15-8" d="m 65.6,93.8 c 1.2,-0.4 1.8,-1 2.8,-1.9 0.2,-0.1 1.9,-1.3 5.3,-3.6 5.7,-3.9 7.3,-3.9 11,-7 1.2,-1 2.1,-2 3.7,-4 1.1,-1.4 1.6,-2.1 1.6,-3 0,-1.2 -0.8,-2.4 -1.9,-3 -1.3,-0.7 -2.7,-0.3 -3.6,0 -3.3,1 -3.7,3.4 -8.1,5.9 -0.8,0.4 -1.6,0.9 -2.8,1.1 -0.4,0.1 -2.8,0.5 -4.2,-0.5 -1.5,-1.1 -1.3,-3.7 -1.1,-7 0,0 0.5,-8 -0.2,-16.5 -0.3,-4.4 -0.9,-6.6 -2.6,-7.6 -0.9,-0.5 -2.2,-0.7 -3.3,-0.3 -3.1,1.2 -3.4,7.3 -3.7,13.5 -0.5,10 -0.8,15.1 -0.3,16.8 0.1,0.3 0.4,1.3 -0.2,2 -0.4,0.6 -1.3,0.6 -2,0.6 -2.6,0 -4.8,-1.2 -8.6,-3.3 -2.8,-1.5 -2.9,-1.6 -3.4,-1.7 -0.5,-0.2 -5.2,-1.5 -7.2,0.8 -0.1,0.1 -0.8,1 -0.8,2.2 0.1,1.1 0.8,1.9 2.6,3.4 2,1.6 3.5,2.5 4.4,3 3.3,2 2.8,2.6 7.6,6.1 3.4,2.4 4.8,2.9 5.4,3.1 0.9,0.3 2.3,0.5 5,0.8 2.9,0.5 3.7,0.4 4.6,0.1 z"/><path style="display:inline;fill:#f2f2f2;stroke:none" id="path17-4" d="m 36.8,72.7 c 0,-0.6 -0.5,-1 -1.4,-1.9 -0.7,-0.6 -1.6,-1.4 -3.1,-1.9 -0.7,-0.2 -2.2,-0.6 -2.6,0 -0.3,0.4 0.1,1.3 0.9,3.1 0.8,1.8 1.1,2.1 1.4,2.3 0.2,0.2 1.1,0.9 2.2,0.8 1.3,0 2.7,-1.3 2.6,-2.4 z"/><path style="display:inline;fill:#f2f2f2;stroke:none" id="path19-7" d="m 91.3,71.7 c 1.1,0.8 2.4,0.4 2.6,0.3 0.3,-0.1 0.7,-0.3 2.5,-2 1.7,-1.7 1.9,-2.1 2,-2.6 0,-0.2 0.1,-1.2 -0.5,-1.7 -0.3,-0.2 -0.7,-0.4 -1.9,-0.3 -0.8,0.1 -3.5,0.4 -5.1,2.6 -0.4,0.6 -0.9,1.3 -0.8,2.2 0.2,0.9 1,1.4 1.2,1.5 z"/><path style="display:inline;fill:#f2f2f2;stroke:none" id="path21-4" d="m 63.7,44.5 c 1.1,0.1 1.9,-1.2 1.9,-1.3 0.4,-0.8 0.3,-1.3 0.1,-3.6 -0.1,-2.4 -0.1,-3.3 -0.7,-4.6 -0.4,-0.8 -0.7,-1 -1,-1.1 -0.7,-0.1 -1.2,0.7 -1.4,0.9 -0.8,1.1 -0.5,1.9 -0.7,4.6 -0.2,2.1 -0.5,2.6 -0.1,3.5 0.2,0.3 0.8,1.6 1.9,1.6 z"/></g></svg>