<svg xmlns="http://www.w3.org/2000/svg" xmlns:svg="http://www.w3.org/2000/svg" id="svg2" width="128" height="128" version="1.1" viewBox="0 0 128 128"><metadata id="metadata7"/><g id="layer5" style="display:inline"><path style="fill:#2d3852;fill-opacity:1;stroke:none;stroke-width:1;stroke-miterlimit:4;stroke-dasharray:none;stroke-opacity:1" id="path4167" d="M 64,18.000004 A 46,46 0 0 0 18.037104,63.242192 c 6.27288,4.756379 7.3914,11.715443 3.05079,17.308593 A 46,46 0 0 0 64,110 a 46,46 0 0 0 46,-45.999996 46,46 0 0 0 -46,-46 z"/></g><g id="layer4" style="display:inline"><path style="display:inline;fill:#f2f2f2;fill-opacity:1;stroke:none;stroke-width:1;stroke-miterlimit:4;stroke-dasharray:none;stroke-opacity:1" id="rect4339" d="M 77.976548,30.804673 A 19.505579,19.505579 0 0 0 63.898424,36.51561 19.505579,19.505579 0 0 0 58.197252,50.314438 l -13.41211,19.167969 a 13.859227,13.859227 0 0 0 -7.292968,2.013672 L 18.078115,62.443344 a 46,46 0 0 0 -0.0781,1.556641 46,46 0 0 0 3.23242,16.90625 l 9.74805,4.544922 a 13.859227,13.859227 0 0 0 3.880859,7.6875 13.859227,13.859227 0 0 0 19.601563,0 13.859227,13.859227 0 0 0 4.05664,-9.925781 L 77.687486,69.802719 a 19.505579,19.505579 0 0 0 13.796875,-5.701172 19.505579,19.505579 0 0 0 0,-27.585937 19.505579,19.505579 0 0 0 -13.507813,-5.710937 z m -0.09766,6.671874 a 12.832618,12.832618 0 0 1 8.886719,3.757813 12.832618,12.832618 0 0 1 0,18.148437 12.832618,12.832618 0 0 1 -18.148437,0 12.832618,12.832618 0 0 1 0,-18.148437 12.832618,12.832618 0 0 1 9.261718,-3.757813 z m -0.04492,3.080079 a 9.7527895,9.7527895 0 0 0 -7.039062,2.855468 9.7527895,9.7527895 0 0 0 0,13.792969 9.7527895,9.7527895 0 0 0 13.792969,0 9.7527895,9.7527895 0 0 0 0,-13.792969 9.7527895,9.7527895 0 0 0 -6.753907,-2.855468 z M 44.810531,73.072251 a 10.266094,10.266094 0 0 1 0.002,0 10.266094,10.266094 0 0 1 7.109375,3.005859 10.266094,10.266094 0 0 1 0,14.519531 10.266094,10.266094 0 0 1 -14.519531,0 10.266094,10.266094 0 0 1 -2.136719,-3.148437 l 6.136719,2.861328 c 3.865912,1.802704 8.429717,0.141303 10.232422,-3.724609 1.802704,-3.865914 0.141302,-8.429718 -3.72461,-10.232422 l -6.144531,-2.865235 a 10.266094,10.266094 0 0 1 3.044922,-0.416015 z"/></g></svg>