<svg xmlns="http://www.w3.org/2000/svg" xmlns:svg="http://www.w3.org/2000/svg" id="svg2" width="128" height="128" version="1.1" viewBox="0 0 128 128"><metadata id="metadata7"/><g id="layer1" transform="translate(0,-924.36216)" style="display:inline"><circle style="fill:#79a73d;fill-opacity:1;stroke:none;stroke-width:6;stroke-miterlimit:4;stroke-dasharray:none;stroke-opacity:1" id="path4399" cx="64" cy="988.362" r="46"/></g><g id="layer5" style="display:inline"><path style="display:inline;fill:#f1f2f2;fill-opacity:1;stroke:none;stroke-width:4;stroke-miterlimit:4;stroke-dasharray:none;stroke-opacity:1" id="path4215-5" d="m 36.900422,53.703201 3.0625,1.800781 c 3.512006,-9.889986 12.966625,-17.003904 24.037109,-17.003906 1.600706,0 3.165344,0.155162 4.685547,0.439453 L 68.570343,35.378982 A 29,29 0 0 0 64.000031,35.000076 29,29 0 0 0 36.900422,53.703201 Z m 0.04297,20.640625 a 29,29 0 0 0 27.056641,18.65625 29,29 0 0 0 4.632812,-0.408203 l 0.02734,-3.527344 c -1.512312,0.281227 -3.0683,0.435547 -4.660156,0.435547 -11.079164,10e-7 -20.539496,-7.125247 -24.044922,-17.027344 l -3.011719,1.871094 z m 8.275391,-5.138672 c 2.268511,8.256926 9.78319,14.294921 18.78125,14.294922 1.627315,0 3.197938,-0.217897 4.707031,-0.589844 l 0.02734,-3.644531 A 16,16 0 0 1 64.000031,80.000076 16,16 0 0 1 48.353547,67.257888 l -3.134766,1.947266 z m 0.04492,-10.58789 3.146484,1.847656 a 16,16 0 0 1 15.589844,-12.464844 16,16 0 0 1 5.003906,0.814453 l -0.11914,-3.677734 c -1.56283,-0.400918 -3.193243,-0.636719 -4.884766,-0.636719 -8.93402,0 -16.409728,5.950693 -18.736328,14.117188 z M 74.642609,75.921951 77.918,77.673904 c 3.452642,-3.514379 5.582031,-8.333743 5.582031,-13.673828 0,-5.274684 -2.080896,-10.038094 -5.458984,-13.541016 l -3.189454,1.810547 a 16,16 0 0 1 5.148438,11.730469 16,16 0 0 1 -5.357422,11.921875 z m 8.699219,4.65625 3.162109,1.691406 A 29,29 0 0 0 93.000031,64.000076 29,29 0 0 0 86.459015,45.68367 l -3.099609,1.757812 c 3.822488,4.460977 6.140625,10.245055 6.140625,16.558594 0,6.32295 -2.325512,12.114466 -6.158203,16.578125 z"/><path style="display:inline;fill:#f1f2f2;fill-opacity:1" id="path4171-4-2-5" d="M 0.25253849,21.176369 -9.0131001,5.5652223 -18.278738,-10.045924 -0.12626874,-10.264629 18.0262,-10.483334 9.1393688,5.3465184 Z" transform="matrix(0,-0.60597818,0.57907471,0,35.737326,63.923489)"/><path style="display:inline;fill:#f1f2f2;fill-opacity:1" id="path4171-4-2-7-0" d="M 0.25253849,21.176369 -9.0131001,5.5652223 -18.278738,-10.045924 -0.12626874,-10.264629 18.0262,-10.483334 9.1393688,5.3465184 Z" transform="matrix(0.5247925,0.30298909,-0.28953736,0.50149341,78.197617,39.562055)"/><path style="display:inline;fill:#f1f2f2;fill-opacity:1" id="path4171-4-2-0-4" d="M 0.25253849,21.176369 -9.0131001,5.5652223 -18.278738,-10.045924 -0.12626874,-10.264629 18.0262,-10.483334 9.1393688,5.3465184 Z" transform="matrix(-0.5247925,0.30298909,-0.28953735,-0.50149341,78.065121,88.514456)"/></g></svg>