<svg xmlns="http://www.w3.org/2000/svg" xmlns:svg="http://www.w3.org/2000/svg" id="svg35" width="128" height="128" version="1.1" viewBox="0 0 128 128"><metadata id="metadata39"/><defs id="defs4"><style id="style2">.cls-1{fill:#0097f4}.cls-2{fill:#fff}</style></defs><title id="title6">ubuntuDDE Official Symbol</title><g id="ubuntuDDE_Official_Symbol" data-name="ubuntuDDE Official Symbol" transform="matrix(0.18461538,0,0,0.18461538,-27.384614,-28.953843)"><circle id="circle8" cx="495" cy="503.5" r="260" class="cls-1" style="fill:#0097f4"/><rect id="rect10" width="269.59" height="7.93" x="401.44" y="414.9" class="cls-2" transform="rotate(29.22,536.2332,418.86561)" style="fill:#fff"/><rect id="rect12" width="269.61" height="7.93" x="390.87" y="434.23" class="cls-2" transform="rotate(29.22,525.68603,438.20768)" style="fill:#fff"/><rect id="rect14" width="253.8" height="7.93" x="274.39" y="495.63" class="cls-2" transform="rotate(-89.99,401.25861,499.58859)" style="fill:#fff"/><rect id="rect16" width="253.82" height="7.93" x="296.41" y="495.43" class="cls-2" transform="rotate(-89.99,423.28552,499.39165)" style="fill:#fff"/><circle id="circle18" cx="414.86" cy="362.37" r="57" class="cls-1" style="fill:#0097f4"/><rect id="rect20" width="265.62" height="7.93" x="392.35" y="545.58" class="cls-2" transform="rotate(-29.01,525.26296,549.61406)" style="fill:#fff"/><rect id="rect22" width="265.64" height="7.93" x="403.21" y="564.74" class="cls-2" transform="rotate(-29.01,536.1408,568.78006)" style="fill:#fff"/><circle id="circle24" cx="415.86" cy="626.28" r="57" class="cls-1" style="fill:#0097f4"/><circle id="circle26" cx="646.78" cy="495.33" r="57" class="cls-1" style="fill:#0097f4"/><circle id="circle28" cx="415" cy="362.5" r="50" class="cls-2" style="fill:#fff"/><circle id="circle30" cx="647" cy="495.5" r="50" class="cls-2" style="fill:#fff"/><circle id="circle32" cx="416" cy="626.5" r="50" class="cls-2" style="fill:#fff"/></g></svg>