<svg xmlns="http://www.w3.org/2000/svg" xmlns:svg="http://www.w3.org/2000/svg" id="svg2" width="128" height="128" version="1.1" viewBox="0 0 128 128"><metadata id="metadata7"/><g id="layer2"><path id="path202" fill="#abc2ab" d="m 63.999998,21 c -9.002438,0.01913 -17.771843,2.863238 -25.071906,8.131401 l 9.766869,9.766868 c 4.608073,-2.818832 9.903179,-4.314809 15.305037,-4.323995 16.251391,-3.2e-5 29.425752,13.17433 29.425718,29.425724 -0.01312,5.399932 -1.511685,10.692167 -4.33188,15.297155 l 9.785391,9.785374 C 104.14572,81.778261 106.98621,73.004903 107,63.999998 107,40.251757 87.748247,21 63.999998,21 Z" style="stroke-width:.408611"/><path id="path204" fill="#478061" d="m 89.071906,98.868607 -9.766874,-9.7669 c -4.608074,2.81884 -9.903179,4.31482 -15.305034,4.32401 -16.251393,3e-5 -29.425757,-13.174325 -29.425724,-29.425719 0.01301,-5.399933 1.511669,-10.692167 4.331879,-15.297154 L 29.120768,38.917465 C 23.854274,46.221745 21.013799,54.99509 21,63.999998 21,87.748247 40.251756,107 63.999998,107 c 9.002439,-0.0193 17.77184,-2.86323 25.071908,-8.131393 z" style="stroke-width:.408611"/><circle id="circle206" cx="63.993" cy="64" r="13.69" fill="#abc2ab" style="stroke-width:.408611"/></g></svg>