<svg xmlns="http://www.w3.org/2000/svg" xmlns:svg="http://www.w3.org/2000/svg" id="svg2" width="128" height="128" version="1.1" viewBox="0 0 128 128"><metadata id="metadata7"/><g id="layer1" transform="translate(0,-924.36216)" style="display:inline"><path id="path12" d="m 62.825045,985.58585 c 3.078076,-10.64496 6.264806,-21.36997 9.342883,-32.01492 -13.176802,-9.41132 -22.589324,-9.75966 -36.569245,-5.55872 -3.078076,10.64495 -6.264807,21.36997 -9.342881,32.01492 13.97992,-4.20093 23.383787,-3.75517 36.569243,5.55872 z" style="fill:#f15026;fill-opacity:1;stroke:none"/><path id="path14" d="m 66.186557,987.7525 c 13.176802,9.41132 22.589323,9.75966 36.569243,5.55871 3.07808,-10.64494 6.26481,-21.36996 9.34289,-32.01491 -13.979931,4.20093 -23.39245,3.8526 -36.569251,-5.55871 -3.078076,10.64494 -6.264807,21.36995 -9.342882,32.01491 z" style="fill:#74c046;fill-opacity:1;stroke:none"/><path id="path16" d="m 65.174958,991.13843 c -3.078081,10.64497 -6.264808,21.37007 -9.342879,32.01497 13.176799,9.4113 22.589313,9.7596 36.569231,5.5587 3.078081,-10.645 6.264815,-21.37 9.34289,-32.01495 -13.979917,4.20095 -23.383787,3.75515 -36.569242,-5.55872 z" style="fill:#ffc315;fill-opacity:1;stroke:none"/><path id="path18" d="m 61.813447,988.97178 c -13.176803,-9.41132 -22.589325,-9.75966 -36.569245,-5.55871 -3.078077,10.64495 -6.264805,21.37003 -9.342884,32.01503 13.97992,-4.2011 23.392442,-3.8527 36.569241,5.5586 3.07807,-10.6449 6.264805,-21.36989 9.342888,-32.01492 z" style="fill:#1d95d2;fill-opacity:1;stroke:none"/></g></svg>