<svg xmlns="http://www.w3.org/2000/svg" xmlns:svg="http://www.w3.org/2000/svg" id="svg2" width="128" height="128" version="1.1" viewBox="0 0 128 128"><metadata id="metadata7"/><g id="layer1" transform="translate(0,-924.36216)"><circle style="color:#000;clip-rule:nonzero;display:inline;overflow:visible;visibility:visible;opacity:1;isolation:auto;mix-blend-mode:normal;color-interpolation:sRGB;color-interpolation-filters:linearRGB;solid-color:#000;solid-opacity:1;fill:#006bc6;fill-opacity:1;fill-rule:nonzero;stroke:none;stroke-width:1;stroke-linecap:butt;stroke-linejoin:miter;stroke-miterlimit:4;stroke-dasharray:none;stroke-dashoffset:0;stroke-opacity:1;color-rendering:auto;image-rendering:auto;shape-rendering:auto;text-rendering:auto;enable-background:accumulate" id="path4725" cx="64" cy="988.362" r="46"/></g><g id="layer3" style="display:inline"><path id="path13-1" d="m 61.4,55.4 c -0.1,0 -0.1,0 0,0 C 61.3,55.2 61.3,55 61.2,54.4 61,52.7 61,52.5 61,52.5 c -0.1,-3 -0.1,-4.5 -0.1,-4.7 -0.2,-2.2 -0.3,-3.6 -1.1,-5.2 -0.4,-0.8 -0.9,-1.7 -2,-2.3 -1.6,-0.9 -3.2,-0.5 -3.4,-0.5 -1.5,0.4 -2.4,1.4 -2.6,1.7 -1,1.3 -1.2,2.7 -1.2,4.2 -0.1,2.1 0.3,3.8 0.9,6.1 0.3,1 0.7,1.7 1.1,3.3 0,0.2 0.1,0.5 -0.1,0.7 -0.3,0.3 -1,0.1 -1.5,-0.2 -0.7,-0.5 -1,-1.3 -1.1,-1.6 0,0 -0.3,-1 -2,-4.7 -0.7,-1.4 -1.7,-3.6 -3.9,-4.7 -0.6,-0.3 -1.6,-0.8 -2.8,-0.5 -2.3,0.5 -3,3.4 -3.1,3.7 -0.2,0.7 -0.2,1.2 -0.2,2.3 0,1.5 0.2,2.6 0.5,3.9 l 0,0 c 0,0 0.5,1.6 0.8,3.4 0.2,1.3 0.2,1.1 0.2,1.3 -1.362213,3.941614 -3.057731,7.678904 -3.6,11.7 -0.4,2.9 -0.832143,6.628571 0.8,12.9 0.7,2.1 1.6,4.4 3.9,6.4 3.5,3 8.2,2.9 10.4,2.8 6.257989,-0.637725 13.205098,-2.630444 18.6,-4.8 8.040907,-3.508606 14.560323,-6.755248 20.3,-11.7 1.1,-1.1 1.7,-2.2 1.9,-2.5 0.4,-0.7 0.8,-1.5 0.9,-2.6 0.1,-1.3 -0.2,-2.4 -0.5,-3 -0.5,-1.3 -1.4,-2.5 -2.8,-3.7 -3,-2.6 -6.1,-3.7 -9.5,-5 -0.6,-0.2 -3,-1.1 -6.1,-1.8 -4.215026,-0.94554 -7.926061,-1.401166 -11.6,-1.7 -0.1,0 -0.5,0 -0.7,-0.3 z" style="display:inline;fill:#f2f2f2;fill-opacity:1;stroke:none"/><path id="path15-3" stroke-miterlimit="10" d="M 93,88.5" style="display:inline;fill:#f2f2f2;fill-opacity:1;stroke:none;stroke-miterlimit:10"/><path id="path17-2" d="m 76,53.9 c -0.252209,-2.663682 0.146671,-5.360633 0.4,-7.2 0.326895,-3.164542 1.033952,-6.372162 1.5,-8.6 0.407171,-1.654596 0.748839,-3.119098 1.8,-3 0.5,0.1 0.6,2 0.7,2.8 0.1,1.9 0,3.5 -0.2,5.7 -0.2,2.6 -0.3,3.4 -0.4,3.7 -0.442786,2.593486 -0.848731,5.049008 -2,7.1 -0.5,0.8 -0.8,0.9 -1,0.9 -0.5,0 -0.7,-0.6 -0.8,-1.4 z" style="display:inline;fill:#f2f2f2;fill-opacity:1;stroke:none"/><path id="path19-1" d="m 81.8,53 c 2.006908,-5.014704 4.298006,-8.982439 7.202184,-12.771429 1.184483,-1.407877 2.078403,-2.715639 3.019009,-2.05484 0.7,0.7 -2.006907,6.206626 -4.221193,10.703055 C 86.109035,52.080632 84.246054,57.862362 81.7,57 80.621429,56.423214 81.4,54.3 81.8,53 Z" style="display:inline;fill:#f2f2f2;fill-opacity:1;stroke:none"/></g></svg>