<svg xmlns="http://www.w3.org/2000/svg" xmlns:svg="http://www.w3.org/2000/svg" id="svg2" width="128" height="128" version="1.1" viewBox="0 0 128 128"><metadata id="metadata7"/><g id="layer1" transform="translate(0,-924.36216)"><path style="fill:#01a4f4;fill-opacity:1;stroke:none;stroke-width:0;stroke-linecap:round;stroke-linejoin:round;stroke-miterlimit:4;stroke-dasharray:none;stroke-opacity:1" id="path4185" d="M 64 23.300781 C 52.997965 23.300782 41.995929 23.587109 41 24.162109 C 40.529575 24.433709 38.978616 26.710648 36.914062 30 L 89.513672 30 L 90.476562 29.037109 C 88.727291 26.288113 87.422121 24.405821 87 24.162109 C 86.004071 23.587109 75.002035 23.300781 64 23.300781 z M 30.892578 40 C 24.695858 50.56336 18 62.699755 18 64 C 18 65.300504 24.699154 77.436771 30.896484 88 L 31.513672 88 L 79.513672 40 L 30.892578 40 z M 96.486328 40 L 48.486328 88 L 97.107422 88 C 103.30414 77.436641 110 65.300245 110 64 C 110 62.699496 103.30085 50.563229 97.103516 40 L 96.486328 40 z M 38.486328 98 L 37.523438 98.962891 C 39.272709 101.71189 40.577879 103.59418 41 103.83789 C 42.991858 104.98789 85.008142 104.98789 87 103.83789 C 87.470425 103.56629 89.021383 101.28935 91.085938 98 L 38.486328 98 z" transform="translate(0,924.36216)"/><path style="display:inline;opacity:1;fill:#01a4f4;fill-opacity:1;fill-rule:nonzero;stroke:none;stroke-width:2;stroke-linecap:butt;stroke-linejoin:miter;stroke-miterlimit:4;stroke-dasharray:none;stroke-dashoffset:0;stroke-opacity:1" id="rect4160-2-5" d="m -47.387421,1086.9164 -3.28638,5.6909 52.3837996,0 0.12041,-0.1204 -3.21783,-5.5705 -45.9999996,0 z m -8.76243,15.1758 -14.23849,24.6608 13.89021,24.0624 48.7232096,-48.7232 -48.3749296,0 z m 63.8712796,0.5984 -48.7231996,48.7232 48.3749296,0 14.2384904,-24.6608 -13.8902204,-24.0624 z m -58.2081196,58.2081 -0.12041,0.1204 3.21783,5.5706 45.9999996,0 3.28637,-5.691 -52.3837896,0 z"/></g></svg>