<svg xmlns="http://www.w3.org/2000/svg" xmlns:svg="http://www.w3.org/2000/svg" id="svg4239" width="32" height="32" version="1.1" viewBox="0 0 32 32"><metadata id="metadata4244"/><g id="layer2"><path style="fill:#808c99;fill-opacity:1;stroke:none;stroke-width:1;stroke-linecap:round;stroke-linejoin:miter;stroke-miterlimit:4;stroke-dasharray:none;stroke-opacity:1" id="path4136" d="m 19.999999,9.9999964 a 10.000001,10.000001 0 0 0 -10.0000002,9.9999996 10.000001,10.000001 0 0 0 10.0000002,10 10.000001,10.000001 0 0 0 10,-10 10.000001,10.000001 0 0 0 -10,-9.9999996 z m 0,5.9999996 a 4.0000005,4.0000005 0 0 1 4,4 4.0000005,4.0000005 0 0 1 -4,4 4.0000005,4.0000005 0 0 1 -4,-4 4.0000005,4.0000005 0 0 1 4,-4 z m 0,1 a 3.0000005,3.0000005 0 0 0 -3,3 3.0000005,3.0000005 0 0 0 3,3 3.0000005,3.0000005 0 0 0 3,-3 3.0000005,3.0000005 0 0 0 -3,-3 z m 0,1.5 a 1.5000003,1.5000003 0 0 1 1.5,1.5 1.5000003,1.5000003 0 0 1 -1.5,1.5 1.5000003,1.5000003 0 0 1 -1.5,-1.5 1.5000003,1.5000003 0 0 1 1.5,-1.5 z"/></g></svg>