<svg xmlns="http://www.w3.org/2000/svg" xmlns:svg="http://www.w3.org/2000/svg" id="svg2" width="48" height="48" version="1.1" viewBox="0 0 48 48"><metadata id="metadata7"/><g id="layer1" transform="translate(0,-1004.3622)"><path style="fill:#808c99;fill-opacity:1;fill-rule:evenodd;stroke:none;stroke-width:1px;stroke-linecap:butt;stroke-linejoin:miter;stroke-opacity:1" id="path4136" d="M 24 13 L 15 16 C 15 26.2 15.600001 30.4 24 34 C 32.4 30.4 33 26.2 33 16 L 24 13 z M 24 18 A 3 3 0 0 1 27 21 A 3 3 0 0 1 25 23.826172 L 25 27 C 25 27.554 24.554 28 24 28 C 23.446 28 23 27.554 23 27 L 23 23.824219 A 3 3 0 0 1 21 21 A 3 3 0 0 1 24 18 z" transform="translate(0,1004.3622)"/></g></svg>