<svg xmlns="http://www.w3.org/2000/svg" xmlns:svg="http://www.w3.org/2000/svg" id="svg2" width="48" height="48" version="1.1" viewBox="0 0 48 48"><metadata id="metadata7"/><g id="layer1" transform="translate(0,-1004.3622)" style="display:inline"><path style="fill:#808c99;fill-opacity:1;stroke:none;stroke-width:0;stroke-linecap:round;stroke-linejoin:round;stroke-miterlimit:4;stroke-dasharray:none;stroke-opacity:1" id="rect4134" d="m 15.5,1019.3622 c -0.277,0 -0.5,0.223 -0.5,0.5 l 0,2.3281 6.171875,6.1719 -6.171875,6.1719 0,2.3281 c 0,0.277 0.223,0.5 0.5,0.5 l 2.328125,0 6.171875,-6.1719 6.171875,6.1719 2.328125,0 c 0.277,0 0.5,-0.223 0.5,-0.5 l 0,-2.3281 -6.171875,-6.1719 6.171875,-6.1719 0,-2.3281 c 0,-0.277 -0.223,-0.5 -0.5,-0.5 l -2.328125,0 -6.171875,6.1719 -6.171875,-6.1719 -2.328125,0 z"/></g></svg>