<svg xmlns="http://www.w3.org/2000/svg" xmlns:xlink="http://www.w3.org/1999/xlink" x="0" y="0" version="1.1" viewBox="0 0 48 48" xml:space="preserve" style="enable-background:new 0 0 48 48"><style type="text/css">.st0{clip-path:url(#SVGID_2_)}.st0,.st1{fill:#808b98}</style><g xmlns:cc="http://creativecommons.org/ns#" xmlns:dc="http://purl.org/dc/elements/1.1/" xmlns:inkscape="http://www.inkscape.org/namespaces/inkscape" xmlns:rdf="http://www.w3.org/1999/02/22-rdf-syntax-ns#" xmlns:sodipodi="http://sodipodi.sourceforge.net/DTD/sodipodi-0.dtd" xmlns:svg="http://www.w3.org/2000/svg" id="svg2" inkscape:export-xdpi="90" inkscape:export-ydpi="90" inkscape:version="0.91 r13725" sodipodi:docname="func_reset.svg"><sodipodi:namedview id="base" bordercolor="#666666" borderopacity="1" pagecolor="#ffffff" showgrid="true" units="px" inkscape:current-layer="layer3" inkscape:cx="9.066" inkscape:cy="24.612" inkscape:document-units="px" inkscape:pageopacity="0" inkscape:pageshadow="2" inkscape:window-height="713" inkscape:window-maximized="1" inkscape:window-width="1366" inkscape:window-x="0" inkscape:window-y="27" inkscape:zoom="6.042"><inkscape:grid id="grid4146" type="xygrid"/></sodipodi:namedview></g><g id="Ebene_2"><g><g><defs><rect id="SVGID_1_" width="25.9" height="25" x="11" y="11.5"/></defs><clipPath id="SVGID_2_"><use xlink:href="#SVGID_1_" style="overflow:visible"/></clipPath><path d="M17.8,25.2l1.9,1.1l-2.5-4.9l-5.6,0.2l1.8,1.1L11,27.2c0,0,2,3.6,3.3,5.7c0.5,0.9,1.3,1.4,2,1.4h7.1v-5.1 h-7.8L17.8,25.2z M17.8,25.2" class="st0"/><path d="M24.4,19.4l5.4,0.3l2.6-4.9l-1.8,1l-2.7-4.4c0,0-4.1,0-6.6,0.1c-1,0.1-1.8,0.4-2.2,1.1l-3.5,6.2l4.5,2.5 l3.8-6.7l2.3,3.7L24.4,19.4z M24.4,19.4" class="st0"/></g><path d="M36,25.7l-3.4-6.3l-4.5,2.4l3.7,6.8l-4.4,0l0.1-2L24.3,31l2.8,4.8l0.1-2.1h5.1c0,0,2.2-3.4,3.4-5.6 C36.3,27.2,36.4,26.3,36,25.7L36,25.7z M36,25.7" class="st1"/></g></g></svg>