<svg xmlns="http://www.w3.org/2000/svg" xmlns:svg="http://www.w3.org/2000/svg" id="svg2" width="48" height="48" version="1.1" viewBox="0 0 48 48"><metadata id="metadata7"/><g id="layer3" style="display:none"><path style="display:inline;opacity:1;fill:#808c99;fill-opacity:1;fill-rule:nonzero;stroke:none;stroke-width:1;stroke-linecap:butt;stroke-linejoin:miter;stroke-miterlimit:10;stroke-dasharray:1,4;stroke-dashoffset:0;stroke-opacity:1" id="path4171" d="M 20,10.589844 A 14,14 0 0 0 10,24 14,14 0 0 0 24,38 14,14 0 0 0 38,24 14,14 0 0 0 28,10.595703 l 0,4.244141 A 10,10 0 0 1 34,24 10,10 0 0 1 24,34 10,10 0 0 1 14,24 10,10 0 0 1 20,14.847656 l 0,-4.257812 z"/><rect style="display:inline;opacity:1;fill:#808c99;fill-opacity:1;fill-rule:nonzero;stroke:none;stroke-width:1;stroke-linecap:butt;stroke-linejoin:miter;stroke-miterlimit:10;stroke-dasharray:1,4;stroke-dashoffset:0;stroke-opacity:1" id="rect4143" width="4" height="16" x="22" y="8" rx=".5" ry=".5"/></g><g id="layer1" transform="translate(0,-1004.3622)" style="display:inline"><rect style="fill:#808c99;fill-opacity:1;stroke:none;stroke-width:2;stroke-linecap:round;stroke-linejoin:miter;stroke-miterlimit:4;stroke-dasharray:none;stroke-opacity:1" id="rect4145" width="4" height="12" x="22" y="1016.362"/><path style="fill:#808c99;fill-opacity:1;stroke:none;stroke-width:2;stroke-linecap:round;stroke-linejoin:miter;stroke-miterlimit:4;stroke-dasharray:none;stroke-opacity:1" id="path4147" d="M 28 13.753906 L 28 18.257812 A 7 7 0 0 1 31 24 A 7 7 0 0 1 24 31 A 7 7 0 0 1 17 24 A 7 7 0 0 1 20 18.265625 L 20 13.765625 A 11 11 0 0 0 13 24 A 11 11 0 0 0 24 35 A 11 11 0 0 0 35 24 A 11 11 0 0 0 28 13.753906 z" transform="translate(0,1004.3622)"/></g></svg>