<svg xmlns="http://www.w3.org/2000/svg" xmlns:svg="http://www.w3.org/2000/svg" id="svg2" width="48" height="48" version="1.1" viewBox="0 0 48 48"><metadata id="metadata7"/><g id="layer3" style="display:inline"><circle style="fill:#ffd5d5;fill-opacity:1;stroke:none;stroke-width:2;stroke-linecap:round;stroke-linejoin:miter;stroke-miterlimit:4;stroke-dasharray:none;stroke-opacity:1" id="path4167" cx="19.531" cy="75.803" r="24" transform="matrix(0,1,1,0,0,0)"/><path style="fill:#808c99;fill-opacity:1;stroke:none;stroke-width:2;stroke-linecap:round;stroke-linejoin:miter;stroke-miterlimit:4;stroke-dasharray:none;stroke-opacity:1" id="path4135" d="M 13,24 A 11,11 0 0 1 24,13 11,11 0 0 1 35,24 11,11 0 0 1 24,35 11,11 0 0 1 16.226562,31.773438 l 2.826172,-2.826172 A 7,7 0 0 0 24,31 a 7,7 0 0 0 7,-7 7,7 0 0 0 -7,-7 7,7 0 0 0 -7,7 l -4,0 z"/><path style="fill:#808c99;fill-opacity:1;stroke:none;stroke-width:2;stroke-linecap:round;stroke-linejoin:miter;stroke-miterlimit:4;stroke-dasharray:none;stroke-opacity:1" id="path4161" d="M 31.5,15 24,19.330127 24,10.669873 Z" transform="matrix(0,1,1,0,0,0)"/><rect style="fill:#808c99;fill-opacity:1;stroke:none;stroke-width:2;stroke-linecap:round;stroke-linejoin:miter;stroke-miterlimit:4;stroke-dasharray:none;stroke-opacity:1" id="rect4169" width="2" height="6" x="23" y="19" rx=".5" ry=".5"/><rect style="fill:#808c99;fill-opacity:1;stroke:none;stroke-width:2;stroke-linecap:round;stroke-linejoin:miter;stroke-miterlimit:4;stroke-dasharray:none;stroke-opacity:1" id="rect4171" width="4" height="2" x="23" y="23" rx=".5" ry=".5"/></g></svg>