<svg xmlns="http://www.w3.org/2000/svg" xmlns:svg="http://www.w3.org/2000/svg" id="svg2" width="48" height="48" version="1.1" viewBox="0 0 48 48"><metadata id="metadata7"/><g id="layer3" style="display:inline"><g id="g4185" transform="matrix(0.70710678,0.70710678,-0.70710678,0.70710678,93.094484,-4.0160578)"><path id="path4137" d="m 24,12 a 6,6 0 0 0 -6,6 6,6 0 0 0 6,6 6,6 0 0 0 6,-6 6,6 0 0 0 -6,-6 z m 0,4 a 2,2 0 0 1 2,2 2,2 0 0 1 -2,2 2,2 0 0 1 -2,-2 2,2 0 0 1 2,-2 z" style="opacity:1;fill:#818d99;fill-opacity:1;fill-rule:nonzero;stroke:none;stroke-width:1;stroke-linecap:butt;stroke-linejoin:miter;stroke-miterlimit:10;stroke-dasharray:none;stroke-dashoffset:0;stroke-opacity:1"/><path id="rect4139" d="m 22,21 0,15 4,0 3,0 0,-2 -3,0 0,-2 3,0 0,-2 -3,0 0,-9 -4,0 z" style="opacity:1;fill:#818d99;fill-opacity:1;fill-rule:nonzero;stroke:none;stroke-width:1;stroke-linecap:butt;stroke-linejoin:miter;stroke-miterlimit:10;stroke-dasharray:none;stroke-dashoffset:0;stroke-opacity:1"/></g><rect style="fill:#818d99;fill-opacity:1;stroke:none;stroke-width:.80000001;stroke-miterlimit:10;stroke-dasharray:none;stroke-opacity:1" id="rect4143" width="12" height="4" x="-35" y="22" rx=".441" ry=".5" transform="matrix(0,-1,1,0,0,0)"/></g><g id="layer1" style="display:inline"><rect style="fill:#818d99;fill-opacity:1;stroke:none;stroke-width:.80000001;stroke-miterlimit:10;stroke-dasharray:none;stroke-opacity:1" id="rect4147" width="2" height="6" x="-34" y="24" rx=".5" ry=".5" transform="matrix(0,-1,1,0,0,0)"/><rect style="fill:#818d99;fill-opacity:1;stroke:none;stroke-width:.80000001;stroke-miterlimit:10;stroke-dasharray:none;stroke-opacity:1" id="rect4147-8" width="2" height="6" x="-30" y="24" rx=".5" ry=".5" transform="matrix(0,-1,1,0,0,0)"/><path style="fill:#818d99;fill-opacity:1;stroke:none;stroke-width:2;stroke-linecap:round;stroke-linejoin:miter;stroke-miterlimit:4;stroke-dasharray:none;stroke-opacity:1" id="path4142" d="m 125.11627,-24.476659 a 11,11 0 0 0 -11,11 11,11 0 0 0 11,10.9999995 11,11 0 0 0 11,-10.9999995 11,11 0 0 0 -0.80859,-4.121094 l -9.99414,9.9941405 -1.41993,1.419922 c -0.0979,0.097934 -0.20973,0.171736 -0.33007,0.220703 -0.36103,0.146901 -0.79019,0.0731 -1.08399,-0.220703 l -1.41406,-1.414063 -4.24219,-4.2421865 c -0.39174,-0.391737 -0.39174,-1.022326 0,-1.414063 l 1.41406,-1.416015 c 0.39174,-0.391738 1.02233,-0.391738 1.41407,0 l 3.53515,3.537109 9.90821,-9.908203 a 11,11 0 0 0 -7.97852,-3.435547 z"/><path style="fill:#818d99;fill-opacity:1;stroke:none;stroke-width:2;stroke-linecap:round;stroke-linejoin:miter;stroke-miterlimit:4;stroke-dasharray:none;stroke-opacity:1" id="path4150" d="M 24 13 A 6 6 0 0 0 18 19 A 6 6 0 0 0 24 25 A 6 6 0 0 0 30 19 A 6 6 0 0 0 24 13 z M 24 17 A 2 2 0 0 1 26 19 A 2 2 0 0 1 24 21 A 2 2 0 0 1 22 19 A 2 2 0 0 1 24 17 z"/></g></svg>