<svg xmlns="http://www.w3.org/2000/svg" xmlns:svg="http://www.w3.org/2000/svg" id="svg2" width="48" height="48" version="1.1" viewBox="0 0 48 48"><metadata id="metadata7"/><g id="layer1" transform="translate(0,-1004.3622)" style="display:none"><path style="color:#000;clip-rule:nonzero;display:inline;overflow:visible;visibility:visible;opacity:1;isolation:auto;mix-blend-mode:normal;color-interpolation:sRGB;color-interpolation-filters:linearRGB;solid-color:#000;solid-opacity:1;fill:#8b98a5;fill-opacity:1;fill-rule:nonzero;stroke:none;stroke-width:1;stroke-linecap:butt;stroke-linejoin:miter;stroke-miterlimit:4;stroke-dasharray:none;stroke-dashoffset:0;stroke-opacity:1;color-rendering:auto;image-rendering:auto;shape-rendering:auto;text-rendering:auto;enable-background:accumulate" id="path4242" d="m 24,10 0,6 a 8,8 0 0 1 8,8 8,8 0 0 1 -8,8 l -6,0 0,-3 -8,6 8,6 0,-3 6,0 A 14,14 0 0 0 38,24 14,14 0 0 0 24,10 Z" transform="translate(0,1004.3622)"/></g><g id="layer3" style="display:inline"><path style="fill:#808c99;fill-opacity:1;stroke:none;stroke-width:2;stroke-linecap:round;stroke-linejoin:miter;stroke-miterlimit:4;stroke-dasharray:none;stroke-opacity:1" id="rect4137" d="M 15 14 C 14.446 14 14 14.446 14 15 L 14 33 C 14 33.554 14.446 34 15 34 L 33 34 C 33.554 34 34 33.554 34 33 L 34 25 L 25 25 L 23 25 L 23 23 L 23 14 L 15 14 z M 25 14 L 25 23 L 34 23 L 34 15 C 34 14.446 33.554 14 33 14 L 25 14 z"/></g></svg>