<svg xmlns="http://www.w3.org/2000/svg" xmlns:svg="http://www.w3.org/2000/svg" id="svg2" width="48" height="48" version="1.1" viewBox="0 0 48 48"><metadata id="metadata7"/><g id="layer1" transform="translate(0,-1004.3622)" style="display:none"><path style="color:#000;clip-rule:nonzero;display:inline;overflow:visible;visibility:visible;opacity:1;isolation:auto;mix-blend-mode:normal;color-interpolation:sRGB;color-interpolation-filters:linearRGB;solid-color:#000;solid-opacity:1;fill:#8b98a5;fill-opacity:1;fill-rule:nonzero;stroke:none;stroke-width:1;stroke-linecap:butt;stroke-linejoin:miter;stroke-miterlimit:4;stroke-dasharray:none;stroke-dashoffset:0;stroke-opacity:1;color-rendering:auto;image-rendering:auto;shape-rendering:auto;text-rendering:auto;enable-background:accumulate" id="path4242" d="m 24,10 0,6 a 8,8 0 0 1 8,8 8,8 0 0 1 -8,8 l -6,0 0,-3 -8,6 8,6 0,-3 6,0 A 14,14 0 0 0 38,24 14,14 0 0 0 24,10 Z" transform="translate(0,1004.3622)"/></g><g id="layer3" style="display:inline"><rect style="opacity:1;fill:#808c99;fill-opacity:1;fill-rule:nonzero;stroke:none;stroke-width:1;stroke-linecap:butt;stroke-linejoin:miter;stroke-miterlimit:10;stroke-dasharray:1,4;stroke-dashoffset:0;stroke-opacity:1" id="rect4136" width="20" height="17" x="14" y="14" rx="1" ry="1"/><rect style="display:inline;opacity:1;fill:#808c99;fill-opacity:1;fill-rule:nonzero;stroke:none;stroke-width:1;stroke-linecap:butt;stroke-linejoin:miter;stroke-miterlimit:10;stroke-dasharray:1,4;stroke-dashoffset:0;stroke-opacity:1" id="rect4138-6" width="2" height="6" x="17" y="28" rx=".5" ry=".5"/><rect style="display:inline;opacity:1;fill:#808c99;fill-opacity:1;fill-rule:nonzero;stroke:none;stroke-width:1;stroke-linecap:butt;stroke-linejoin:miter;stroke-miterlimit:10;stroke-dasharray:1,4;stroke-dashoffset:0;stroke-opacity:1" id="rect4138-50" width="2" height="6" x="21" y="28" rx=".5" ry=".5"/><rect style="display:inline;opacity:1;fill:#808c99;fill-opacity:1;fill-rule:nonzero;stroke:none;stroke-width:1;stroke-linecap:butt;stroke-linejoin:miter;stroke-miterlimit:10;stroke-dasharray:1,4;stroke-dashoffset:0;stroke-opacity:1" id="rect4138-73" width="2" height="6" x="25" y="28" rx=".5" ry=".5"/><rect style="display:inline;opacity:1;fill:#808c99;fill-opacity:1;fill-rule:nonzero;stroke:none;stroke-width:1;stroke-linecap:butt;stroke-linejoin:miter;stroke-miterlimit:10;stroke-dasharray:1,4;stroke-dashoffset:0;stroke-opacity:1" id="rect4138-8" width="2" height="6" x="29" y="28" rx=".5" ry=".5"/></g></svg>